G75*
%MOIN*%
%OFA0B0*%
%FSLAX25Y25*%
%IPPOS*%
%LPD*%
%AMOC8*
5,1,8,0,0,1.08239X$1,22.5*
%
%ADD10C,0.00000*%
%ADD11OC8,0.05200*%
%ADD12C,0.05200*%
%ADD13C,0.05150*%
%ADD14C,0.11220*%
%ADD15C,0.05200*%
%ADD16C,0.05937*%
%ADD17C,0.07400*%
%ADD18C,0.00600*%
%ADD19C,0.01600*%
%ADD20C,0.02578*%
D10*
X0005500Y0007548D02*
X0005500Y0204398D01*
X0202350Y0204398D01*
X0202350Y0007548D01*
X0005500Y0007548D01*
D11*
X0020500Y0012548D03*
X0020500Y0022548D03*
X0040500Y0022548D03*
X0040500Y0012548D03*
X0064500Y0037048D03*
X0075500Y0047548D03*
X0075500Y0057548D03*
X0060500Y0072548D03*
X0050500Y0072548D03*
X0040500Y0072548D03*
X0040500Y0112548D03*
X0050500Y0112548D03*
X0060500Y0112548D03*
X0135500Y0167548D03*
X0135500Y0177548D03*
X0095500Y0197548D03*
X0055500Y0197548D03*
X0145500Y0102548D03*
X0115500Y0027548D03*
X0115500Y0017548D03*
X0104000Y0022548D03*
X0096500Y0017548D03*
X0096500Y0027548D03*
X0080500Y0027548D03*
X0080500Y0017548D03*
D12*
X0064500Y0017048D03*
X0145500Y0122548D03*
D13*
X0165921Y0035347D03*
X0170646Y0032198D03*
X0165921Y0029048D03*
X0170646Y0025898D03*
X0165921Y0022749D03*
X0148374Y0017548D03*
X0140500Y0017548D03*
X0132626Y0017548D03*
D14*
X0186000Y0014678D03*
X0186000Y0043418D03*
D15*
X0123100Y0047548D02*
X0117900Y0047548D01*
X0117900Y0057548D02*
X0123100Y0057548D01*
X0123100Y0067548D02*
X0117900Y0067548D01*
X0117900Y0077548D02*
X0123100Y0077548D01*
X0123100Y0087548D02*
X0117900Y0087548D01*
X0117900Y0097548D02*
X0123100Y0097548D01*
X0123100Y0107548D02*
X0117900Y0107548D01*
X0117900Y0117548D02*
X0123100Y0117548D01*
X0123100Y0127548D02*
X0117900Y0127548D01*
X0117900Y0137548D02*
X0123100Y0137548D01*
X0123100Y0147548D02*
X0117900Y0147548D01*
X0117900Y0157548D02*
X0123100Y0157548D01*
X0123100Y0167548D02*
X0117900Y0167548D01*
X0117900Y0177548D02*
X0123100Y0177548D01*
X0093100Y0177548D02*
X0087900Y0177548D01*
X0087900Y0167548D02*
X0093100Y0167548D01*
X0093100Y0157548D02*
X0087900Y0157548D01*
X0087900Y0147548D02*
X0093100Y0147548D01*
X0093100Y0137548D02*
X0087900Y0137548D01*
X0087900Y0127548D02*
X0093100Y0127548D01*
X0093100Y0117548D02*
X0087900Y0117548D01*
X0087900Y0107548D02*
X0093100Y0107548D01*
X0093100Y0097548D02*
X0087900Y0097548D01*
X0087900Y0087548D02*
X0093100Y0087548D01*
X0093100Y0077548D02*
X0087900Y0077548D01*
X0087900Y0067548D02*
X0093100Y0067548D01*
X0093100Y0057548D02*
X0087900Y0057548D01*
X0087900Y0047548D02*
X0093100Y0047548D01*
D16*
X0124752Y0017548D03*
X0156248Y0017548D03*
D17*
X0198000Y0072548D03*
X0198000Y0082548D03*
X0198000Y0092548D03*
X0198000Y0102548D03*
X0198000Y0112548D03*
X0198000Y0122548D03*
X0198000Y0132548D03*
X0198000Y0142548D03*
X0075500Y0102548D03*
X0075500Y0092548D03*
X0075500Y0082548D03*
X0035500Y0052548D03*
X0015500Y0052548D03*
X0010500Y0072548D03*
X0010500Y0082548D03*
X0010500Y0092548D03*
X0010500Y0102548D03*
X0010500Y0112548D03*
X0010500Y0122548D03*
X0010500Y0132548D03*
X0010500Y0142548D03*
X0010500Y0152548D03*
X0010500Y0162548D03*
X0010500Y0172548D03*
X0010500Y0182548D03*
X0010500Y0192548D03*
X0025500Y0192548D03*
X0045500Y0192548D03*
D18*
X0045800Y0192488D02*
X0068200Y0192488D01*
X0068200Y0191890D02*
X0050458Y0191890D01*
X0050500Y0192155D02*
X0050500Y0192248D01*
X0045800Y0192248D01*
X0045800Y0187548D01*
X0045894Y0187548D01*
X0046671Y0187671D01*
X0047419Y0187914D01*
X0048121Y0188272D01*
X0048757Y0188734D01*
X0049314Y0189291D01*
X0049776Y0189927D01*
X0050134Y0190629D01*
X0050377Y0191377D01*
X0050500Y0192155D01*
X0050500Y0192848D02*
X0050500Y0192942D01*
X0050377Y0193719D01*
X0050134Y0194467D01*
X0049776Y0195169D01*
X0049314Y0195805D01*
X0048757Y0196362D01*
X0048121Y0196824D01*
X0047419Y0197182D01*
X0046671Y0197425D01*
X0045894Y0197548D01*
X0045800Y0197548D01*
X0045800Y0192848D01*
X0050500Y0192848D01*
X0050477Y0193087D02*
X0068200Y0193087D01*
X0068200Y0193685D02*
X0057435Y0193685D01*
X0057198Y0193448D02*
X0059600Y0195850D01*
X0059600Y0199246D01*
X0057198Y0201648D01*
X0053802Y0201648D01*
X0051400Y0199246D01*
X0051400Y0195850D01*
X0053802Y0193448D01*
X0057198Y0193448D01*
X0058034Y0194284D02*
X0068200Y0194284D01*
X0068200Y0194882D02*
X0058632Y0194882D01*
X0059231Y0195481D02*
X0068200Y0195481D01*
X0068200Y0195904D02*
X0068200Y0184192D01*
X0068136Y0184128D01*
X0067711Y0183103D01*
X0067711Y0181993D01*
X0068136Y0180968D01*
X0068920Y0180184D01*
X0069945Y0179759D01*
X0071055Y0179759D01*
X0072080Y0180184D01*
X0072864Y0180968D01*
X0073289Y0181993D01*
X0073289Y0183103D01*
X0072864Y0184128D01*
X0072800Y0184192D01*
X0072800Y0195904D01*
X0072864Y0195968D01*
X0073289Y0196993D01*
X0073289Y0198103D01*
X0072864Y0199128D01*
X0072080Y0199912D01*
X0071055Y0200337D01*
X0069945Y0200337D01*
X0068920Y0199912D01*
X0068136Y0199128D01*
X0067711Y0198103D01*
X0067711Y0196993D01*
X0068136Y0195968D01*
X0068200Y0195904D01*
X0068090Y0196079D02*
X0059600Y0196079D01*
X0059600Y0196678D02*
X0067842Y0196678D01*
X0067711Y0197276D02*
X0059600Y0197276D01*
X0059600Y0197875D02*
X0067711Y0197875D01*
X0067864Y0198473D02*
X0059600Y0198473D01*
X0059600Y0199072D02*
X0068112Y0199072D01*
X0068678Y0199670D02*
X0059176Y0199670D01*
X0058578Y0200269D02*
X0069780Y0200269D01*
X0071220Y0200269D02*
X0092422Y0200269D01*
X0091824Y0199670D02*
X0072322Y0199670D01*
X0072888Y0199072D02*
X0091400Y0199072D01*
X0091400Y0199246D02*
X0091400Y0195850D01*
X0093802Y0193448D01*
X0097198Y0193448D01*
X0099600Y0195850D01*
X0099600Y0199246D01*
X0097198Y0201648D01*
X0093802Y0201648D01*
X0091400Y0199246D01*
X0091400Y0198473D02*
X0073136Y0198473D01*
X0073289Y0197875D02*
X0091400Y0197875D01*
X0091400Y0197276D02*
X0073289Y0197276D01*
X0073158Y0196678D02*
X0091400Y0196678D01*
X0091400Y0196079D02*
X0072910Y0196079D01*
X0072800Y0195481D02*
X0091769Y0195481D01*
X0092368Y0194882D02*
X0072800Y0194882D01*
X0072800Y0194284D02*
X0092966Y0194284D01*
X0093565Y0193685D02*
X0072800Y0193685D01*
X0072800Y0193087D02*
X0200850Y0193087D01*
X0200850Y0193685D02*
X0097435Y0193685D01*
X0098034Y0194284D02*
X0200850Y0194284D01*
X0200850Y0194882D02*
X0098632Y0194882D01*
X0099231Y0195481D02*
X0200850Y0195481D01*
X0200850Y0196079D02*
X0099600Y0196079D01*
X0099600Y0196678D02*
X0200850Y0196678D01*
X0200850Y0197276D02*
X0099600Y0197276D01*
X0099600Y0197875D02*
X0200850Y0197875D01*
X0200850Y0198473D02*
X0099600Y0198473D01*
X0099600Y0199072D02*
X0200850Y0199072D01*
X0200850Y0199670D02*
X0099176Y0199670D01*
X0098578Y0200269D02*
X0200850Y0200269D01*
X0200850Y0200867D02*
X0097979Y0200867D01*
X0097381Y0201466D02*
X0200850Y0201466D01*
X0200850Y0202064D02*
X0007000Y0202064D01*
X0007000Y0202548D02*
X0200850Y0202548D01*
X0200850Y0146996D01*
X0199034Y0147748D01*
X0196966Y0147748D01*
X0195054Y0146956D01*
X0193592Y0145494D01*
X0192800Y0143582D01*
X0192800Y0141514D01*
X0193592Y0139602D01*
X0195054Y0138140D01*
X0196483Y0137548D01*
X0195054Y0136956D01*
X0193592Y0135494D01*
X0192800Y0133582D01*
X0192800Y0131514D01*
X0193592Y0129602D01*
X0195054Y0128140D01*
X0196483Y0127548D01*
X0195054Y0126956D01*
X0193592Y0125494D01*
X0192800Y0123582D01*
X0192800Y0121514D01*
X0193592Y0119602D01*
X0195054Y0118140D01*
X0196483Y0117548D01*
X0195054Y0116956D01*
X0193592Y0115494D01*
X0192800Y0113582D01*
X0192800Y0111514D01*
X0193592Y0109602D01*
X0195054Y0108140D01*
X0196483Y0107548D01*
X0195054Y0106956D01*
X0193592Y0105494D01*
X0192800Y0103582D01*
X0192800Y0101514D01*
X0176920Y0101514D01*
X0176920Y0100916D02*
X0193048Y0100916D01*
X0192800Y0101514D02*
X0193592Y0099602D01*
X0195054Y0098140D01*
X0196483Y0097548D01*
X0195054Y0096956D01*
X0193592Y0095494D01*
X0192800Y0093582D01*
X0192800Y0091514D01*
X0193592Y0089602D01*
X0195054Y0088140D01*
X0196483Y0087548D01*
X0195054Y0086956D01*
X0193592Y0085494D01*
X0192800Y0083582D01*
X0192800Y0081514D01*
X0193592Y0079602D01*
X0195054Y0078140D01*
X0196802Y0077416D01*
X0196081Y0077182D01*
X0195379Y0076824D01*
X0194743Y0076362D01*
X0194186Y0075805D01*
X0193724Y0075169D01*
X0193366Y0074467D01*
X0193123Y0073719D01*
X0193000Y0072942D01*
X0193000Y0072848D01*
X0197700Y0072848D01*
X0197700Y0072248D01*
X0198300Y0072248D01*
X0198300Y0067548D01*
X0198394Y0067548D01*
X0199171Y0067671D01*
X0199919Y0067914D01*
X0200621Y0068272D01*
X0200850Y0068439D01*
X0200850Y0009048D01*
X0190425Y0009048D01*
X0192028Y0010650D01*
X0193110Y0013264D01*
X0193110Y0016092D01*
X0192028Y0018706D01*
X0190028Y0020706D01*
X0187414Y0021788D01*
X0184586Y0021788D01*
X0181972Y0020706D01*
X0179972Y0018706D01*
X0178890Y0016092D01*
X0178890Y0013264D01*
X0179972Y0010650D01*
X0181575Y0009048D01*
X0042798Y0009048D01*
X0044600Y0010850D01*
X0044600Y0014246D01*
X0042198Y0016648D01*
X0038802Y0016648D01*
X0036400Y0014246D01*
X0036400Y0010850D01*
X0038202Y0009048D01*
X0022798Y0009048D01*
X0024600Y0010850D01*
X0024600Y0014246D01*
X0022198Y0016648D01*
X0018802Y0016648D01*
X0016400Y0014246D01*
X0016400Y0010850D01*
X0018202Y0009048D01*
X0007000Y0009048D01*
X0007000Y0068977D01*
X0007243Y0068734D01*
X0007879Y0068272D01*
X0008581Y0067914D01*
X0009329Y0067671D01*
X0010106Y0067548D01*
X0010200Y0067548D01*
X0010200Y0072248D01*
X0010800Y0072248D01*
X0010800Y0067548D01*
X0010894Y0067548D01*
X0011671Y0067671D01*
X0012419Y0067914D01*
X0013121Y0068272D01*
X0013757Y0068734D01*
X0014314Y0069291D01*
X0014776Y0069927D01*
X0015134Y0070629D01*
X0015377Y0071377D01*
X0015500Y0072155D01*
X0015500Y0072248D01*
X0010800Y0072248D01*
X0010800Y0072848D01*
X0015500Y0072848D01*
X0015500Y0072942D01*
X0015377Y0073719D01*
X0015134Y0074467D01*
X0014776Y0075169D01*
X0014314Y0075805D01*
X0013757Y0076362D01*
X0013121Y0076824D01*
X0012419Y0077182D01*
X0011698Y0077416D01*
X0013446Y0078140D01*
X0014908Y0079602D01*
X0015700Y0081514D01*
X0015700Y0083582D01*
X0015337Y0084458D01*
X0018200Y0081595D01*
X0018200Y0069192D01*
X0018136Y0069128D01*
X0017711Y0068103D01*
X0017711Y0066993D01*
X0018136Y0065968D01*
X0018920Y0065184D01*
X0019945Y0064759D01*
X0021055Y0064759D01*
X0022080Y0065184D01*
X0022864Y0065968D01*
X0023289Y0066993D01*
X0023289Y0068103D01*
X0022864Y0069128D01*
X0022800Y0069192D01*
X0022800Y0083501D01*
X0015433Y0090868D01*
X0015700Y0091514D01*
X0015700Y0093582D01*
X0014908Y0095494D01*
X0013446Y0096956D01*
X0012017Y0097548D01*
X0013446Y0098140D01*
X0014908Y0099602D01*
X0015095Y0100054D01*
X0028200Y0091317D01*
X0028200Y0063779D01*
X0018150Y0057079D01*
X0016534Y0057748D01*
X0014466Y0057748D01*
X0012554Y0056956D01*
X0011092Y0055494D01*
X0010300Y0053582D01*
X0010300Y0051514D01*
X0011092Y0049602D01*
X0012554Y0048140D01*
X0014466Y0047348D01*
X0016534Y0047348D01*
X0018446Y0048140D01*
X0019908Y0049602D01*
X0020700Y0051514D01*
X0020700Y0053250D01*
X0031196Y0060248D01*
X0031453Y0060248D01*
X0031965Y0060761D01*
X0032568Y0061163D01*
X0032619Y0061414D01*
X0046000Y0061414D01*
X0046000Y0060816D02*
X0032048Y0060816D01*
X0032619Y0061414D02*
X0032800Y0061595D01*
X0032800Y0062320D01*
X0032942Y0063031D01*
X0032800Y0063244D01*
X0032800Y0091852D01*
X0032942Y0092065D01*
X0032800Y0092776D01*
X0032800Y0093501D01*
X0032619Y0093682D01*
X0032568Y0093933D01*
X0031965Y0094335D01*
X0031453Y0094848D01*
X0031196Y0094848D01*
X0016965Y0104335D01*
X0016453Y0104848D01*
X0016196Y0104848D01*
X0015983Y0104990D01*
X0015272Y0104848D01*
X0015176Y0104848D01*
X0014908Y0105494D01*
X0013446Y0106956D01*
X0012017Y0107548D01*
X0013446Y0108140D01*
X0014908Y0109602D01*
X0015700Y0111514D01*
X0015700Y0113582D01*
X0014908Y0115494D01*
X0013446Y0116956D01*
X0012017Y0117548D01*
X0013446Y0118140D01*
X0014908Y0119602D01*
X0015700Y0121514D01*
X0015700Y0123582D01*
X0014908Y0125494D01*
X0013446Y0126956D01*
X0012017Y0127548D01*
X0013446Y0128140D01*
X0014908Y0129602D01*
X0015700Y0131514D01*
X0015700Y0133582D01*
X0014908Y0135494D01*
X0013446Y0136956D01*
X0012017Y0137548D01*
X0013446Y0138140D01*
X0014908Y0139602D01*
X0015700Y0141514D01*
X0015700Y0143582D01*
X0014908Y0145494D01*
X0013446Y0146956D01*
X0012017Y0147548D01*
X0013446Y0148140D01*
X0014908Y0149602D01*
X0015700Y0151514D01*
X0015700Y0153582D01*
X0015337Y0154458D01*
X0024547Y0145248D01*
X0084415Y0145248D01*
X0084424Y0145226D01*
X0085578Y0144072D01*
X0087084Y0143448D01*
X0093916Y0143448D01*
X0095422Y0144072D01*
X0096576Y0145226D01*
X0097200Y0146732D01*
X0097200Y0148364D01*
X0096576Y0149870D01*
X0095422Y0151024D01*
X0093916Y0151648D01*
X0087084Y0151648D01*
X0085578Y0151024D01*
X0084424Y0149870D01*
X0084415Y0149848D01*
X0061270Y0149848D01*
X0062080Y0150184D01*
X0062864Y0150968D01*
X0063289Y0151993D01*
X0063289Y0153103D01*
X0062864Y0154128D01*
X0062080Y0154912D01*
X0061055Y0155337D01*
X0060964Y0155337D01*
X0041453Y0174848D01*
X0015176Y0174848D01*
X0014908Y0175494D01*
X0013446Y0176956D01*
X0012017Y0177548D01*
X0013446Y0178140D01*
X0014908Y0179602D01*
X0015700Y0181514D01*
X0015700Y0183582D01*
X0014908Y0185494D01*
X0013446Y0186956D01*
X0011698Y0187680D01*
X0012419Y0187914D01*
X0013121Y0188272D01*
X0013757Y0188734D01*
X0014314Y0189291D01*
X0014776Y0189927D01*
X0015134Y0190629D01*
X0015377Y0191377D01*
X0015500Y0192155D01*
X0015500Y0192248D01*
X0010800Y0192248D01*
X0010800Y0192848D01*
X0015500Y0192848D01*
X0015500Y0192942D01*
X0015377Y0193719D01*
X0015134Y0194467D01*
X0014776Y0195169D01*
X0014314Y0195805D01*
X0013757Y0196362D01*
X0013121Y0196824D01*
X0012419Y0197182D01*
X0011671Y0197425D01*
X0010894Y0197548D01*
X0010800Y0197548D01*
X0010800Y0192848D01*
X0010200Y0192848D01*
X0010200Y0197548D01*
X0010106Y0197548D01*
X0009329Y0197425D01*
X0008581Y0197182D01*
X0007879Y0196824D01*
X0007243Y0196362D01*
X0007000Y0196119D01*
X0007000Y0202548D01*
X0007000Y0201466D02*
X0053619Y0201466D01*
X0053021Y0200867D02*
X0007000Y0200867D01*
X0007000Y0200269D02*
X0052422Y0200269D01*
X0051824Y0199670D02*
X0007000Y0199670D01*
X0007000Y0199072D02*
X0051400Y0199072D01*
X0051400Y0198473D02*
X0007000Y0198473D01*
X0007000Y0197875D02*
X0051400Y0197875D01*
X0051400Y0197276D02*
X0047129Y0197276D01*
X0045800Y0197276D02*
X0045200Y0197276D01*
X0045200Y0197548D02*
X0045106Y0197548D01*
X0044329Y0197425D01*
X0043581Y0197182D01*
X0042879Y0196824D01*
X0042243Y0196362D01*
X0041686Y0195805D01*
X0041224Y0195169D01*
X0040866Y0194467D01*
X0040623Y0193719D01*
X0040500Y0192942D01*
X0040500Y0192848D01*
X0045200Y0192848D01*
X0045200Y0192248D01*
X0045800Y0192248D01*
X0045800Y0192848D01*
X0045200Y0192848D01*
X0045200Y0197548D01*
X0045200Y0196678D02*
X0045800Y0196678D01*
X0045800Y0196079D02*
X0045200Y0196079D01*
X0045200Y0195481D02*
X0045800Y0195481D01*
X0045800Y0194882D02*
X0045200Y0194882D01*
X0045200Y0194284D02*
X0045800Y0194284D01*
X0045800Y0193685D02*
X0045200Y0193685D01*
X0045200Y0193087D02*
X0045800Y0193087D01*
X0045200Y0192488D02*
X0030700Y0192488D01*
X0030700Y0191890D02*
X0040542Y0191890D01*
X0040500Y0192155D02*
X0040623Y0191377D01*
X0040866Y0190629D01*
X0041224Y0189927D01*
X0041686Y0189291D01*
X0042243Y0188734D01*
X0042879Y0188272D01*
X0043581Y0187914D01*
X0044329Y0187671D01*
X0045106Y0187548D01*
X0045200Y0187548D01*
X0045200Y0192248D01*
X0040500Y0192248D01*
X0040500Y0192155D01*
X0040651Y0191291D02*
X0030608Y0191291D01*
X0030700Y0191514D02*
X0029908Y0189602D01*
X0028446Y0188140D01*
X0026534Y0187348D01*
X0024466Y0187348D01*
X0022554Y0188140D01*
X0021092Y0189602D01*
X0020300Y0191514D01*
X0020300Y0193582D01*
X0021092Y0195494D01*
X0022554Y0196956D01*
X0024466Y0197748D01*
X0026534Y0197748D01*
X0028446Y0196956D01*
X0029908Y0195494D01*
X0030700Y0193582D01*
X0030700Y0191514D01*
X0030360Y0190692D02*
X0040846Y0190692D01*
X0041139Y0190094D02*
X0030112Y0190094D01*
X0029801Y0189495D02*
X0041537Y0189495D01*
X0042080Y0188897D02*
X0029203Y0188897D01*
X0028604Y0188298D02*
X0042843Y0188298D01*
X0044241Y0187700D02*
X0027384Y0187700D01*
X0023616Y0187700D02*
X0011759Y0187700D01*
X0013095Y0187101D02*
X0068200Y0187101D01*
X0068200Y0186503D02*
X0013899Y0186503D01*
X0014498Y0185904D02*
X0068200Y0185904D01*
X0068200Y0185306D02*
X0014986Y0185306D01*
X0015234Y0184707D02*
X0068200Y0184707D01*
X0068128Y0184109D02*
X0015482Y0184109D01*
X0015700Y0183510D02*
X0067880Y0183510D01*
X0067711Y0182912D02*
X0015700Y0182912D01*
X0015700Y0182313D02*
X0067711Y0182313D01*
X0067826Y0181715D02*
X0015700Y0181715D01*
X0015535Y0181116D02*
X0068074Y0181116D01*
X0068586Y0180518D02*
X0015287Y0180518D01*
X0015040Y0179919D02*
X0069558Y0179919D01*
X0071442Y0179919D02*
X0084473Y0179919D01*
X0084424Y0179870D02*
X0083800Y0178364D01*
X0083800Y0176732D01*
X0084424Y0175226D01*
X0085578Y0174072D01*
X0087084Y0173448D01*
X0093916Y0173448D01*
X0095422Y0174072D01*
X0096576Y0175226D01*
X0097200Y0176732D01*
X0097200Y0178364D01*
X0096576Y0179870D01*
X0095422Y0181024D01*
X0093916Y0181648D01*
X0087084Y0181648D01*
X0085578Y0181024D01*
X0084424Y0179870D01*
X0084196Y0179321D02*
X0014627Y0179321D01*
X0014028Y0178722D02*
X0083949Y0178722D01*
X0083800Y0178124D02*
X0013407Y0178124D01*
X0013475Y0176927D02*
X0083800Y0176927D01*
X0083800Y0177525D02*
X0012072Y0177525D01*
X0014074Y0176328D02*
X0083967Y0176328D01*
X0084215Y0175730D02*
X0014672Y0175730D01*
X0015058Y0175131D02*
X0084519Y0175131D01*
X0085117Y0174533D02*
X0041768Y0174533D01*
X0042367Y0173934D02*
X0085911Y0173934D01*
X0086824Y0171540D02*
X0044761Y0171540D01*
X0045359Y0170942D02*
X0085495Y0170942D01*
X0085578Y0171024D02*
X0084424Y0169870D01*
X0083800Y0168364D01*
X0083800Y0166732D01*
X0084424Y0165226D01*
X0085578Y0164072D01*
X0087084Y0163448D01*
X0093916Y0163448D01*
X0095422Y0164072D01*
X0096576Y0165226D01*
X0097200Y0166732D01*
X0097200Y0168364D01*
X0096576Y0169870D01*
X0095422Y0171024D01*
X0093916Y0171648D01*
X0087084Y0171648D01*
X0085578Y0171024D01*
X0084897Y0170343D02*
X0045958Y0170343D01*
X0046556Y0169745D02*
X0084372Y0169745D01*
X0084124Y0169146D02*
X0047155Y0169146D01*
X0047753Y0168548D02*
X0083876Y0168548D01*
X0083800Y0167949D02*
X0048352Y0167949D01*
X0048950Y0167351D02*
X0083800Y0167351D01*
X0083800Y0166752D02*
X0049549Y0166752D01*
X0050147Y0166154D02*
X0084040Y0166154D01*
X0084288Y0165555D02*
X0050746Y0165555D01*
X0051344Y0164957D02*
X0084693Y0164957D01*
X0085292Y0164358D02*
X0051943Y0164358D01*
X0052541Y0163759D02*
X0086333Y0163759D01*
X0087084Y0161648D02*
X0085578Y0161024D01*
X0084424Y0159870D01*
X0083800Y0158364D01*
X0083800Y0156732D01*
X0084424Y0155226D01*
X0085578Y0154072D01*
X0087084Y0153448D01*
X0093916Y0153448D01*
X0095422Y0154072D01*
X0096576Y0155226D01*
X0097200Y0156732D01*
X0097200Y0158364D01*
X0096576Y0159870D01*
X0095422Y0161024D01*
X0093916Y0161648D01*
X0087084Y0161648D01*
X0086402Y0161365D02*
X0054935Y0161365D01*
X0055534Y0160767D02*
X0085321Y0160767D01*
X0084722Y0160168D02*
X0056132Y0160168D01*
X0056731Y0159570D02*
X0084300Y0159570D01*
X0084052Y0158971D02*
X0057329Y0158971D01*
X0057928Y0158373D02*
X0083804Y0158373D01*
X0083800Y0157774D02*
X0058526Y0157774D01*
X0059125Y0157176D02*
X0083800Y0157176D01*
X0083864Y0156577D02*
X0059723Y0156577D01*
X0060322Y0155979D02*
X0084112Y0155979D01*
X0084360Y0155380D02*
X0060920Y0155380D01*
X0062210Y0154782D02*
X0084868Y0154782D01*
X0085466Y0154183D02*
X0062809Y0154183D01*
X0063089Y0153585D02*
X0086754Y0153585D01*
X0085981Y0151191D02*
X0062957Y0151191D01*
X0063204Y0151789D02*
X0200850Y0151789D01*
X0200850Y0151191D02*
X0125019Y0151191D01*
X0125422Y0151024D02*
X0123916Y0151648D01*
X0117084Y0151648D01*
X0115578Y0151024D01*
X0114424Y0149870D01*
X0113800Y0148364D01*
X0113800Y0146732D01*
X0114424Y0145226D01*
X0115578Y0144072D01*
X0117084Y0143448D01*
X0123916Y0143448D01*
X0125422Y0144072D01*
X0126576Y0145226D01*
X0127200Y0146732D01*
X0127200Y0148364D01*
X0126576Y0149870D01*
X0125422Y0151024D01*
X0125854Y0150592D02*
X0200850Y0150592D01*
X0200850Y0149994D02*
X0126453Y0149994D01*
X0126773Y0149395D02*
X0200850Y0149395D01*
X0200850Y0148797D02*
X0127021Y0148797D01*
X0127200Y0148198D02*
X0200850Y0148198D01*
X0200850Y0147600D02*
X0199392Y0147600D01*
X0200837Y0147001D02*
X0200850Y0147001D01*
X0196608Y0147600D02*
X0127200Y0147600D01*
X0127200Y0147001D02*
X0195163Y0147001D01*
X0194501Y0146403D02*
X0127063Y0146403D01*
X0126815Y0145804D02*
X0193902Y0145804D01*
X0193472Y0145206D02*
X0126556Y0145206D01*
X0125957Y0144607D02*
X0193224Y0144607D01*
X0192977Y0144009D02*
X0125269Y0144009D01*
X0123996Y0141615D02*
X0192800Y0141615D01*
X0192800Y0142213D02*
X0015700Y0142213D01*
X0015700Y0141615D02*
X0087004Y0141615D01*
X0087084Y0141648D02*
X0085578Y0141024D01*
X0084424Y0139870D01*
X0084415Y0139848D01*
X0077144Y0139848D01*
X0077080Y0139912D01*
X0076055Y0140337D01*
X0074945Y0140337D01*
X0073920Y0139912D01*
X0073136Y0139128D01*
X0072711Y0138103D01*
X0072711Y0136993D01*
X0073136Y0135968D01*
X0073920Y0135184D01*
X0074945Y0134759D01*
X0076055Y0134759D01*
X0077080Y0135184D01*
X0077144Y0135248D01*
X0084415Y0135248D01*
X0084424Y0135226D01*
X0085578Y0134072D01*
X0087084Y0133448D01*
X0093916Y0133448D01*
X0095422Y0134072D01*
X0096576Y0135226D01*
X0097200Y0136732D01*
X0097200Y0138364D01*
X0096576Y0139870D01*
X0095422Y0141024D01*
X0093916Y0141648D01*
X0087084Y0141648D01*
X0085570Y0141016D02*
X0015494Y0141016D01*
X0015246Y0140418D02*
X0084971Y0140418D01*
X0085731Y0144009D02*
X0015523Y0144009D01*
X0015700Y0143410D02*
X0192800Y0143410D01*
X0192800Y0142812D02*
X0015700Y0142812D01*
X0015276Y0144607D02*
X0085043Y0144607D01*
X0084444Y0145206D02*
X0015028Y0145206D01*
X0014598Y0145804D02*
X0023991Y0145804D01*
X0023393Y0146403D02*
X0013999Y0146403D01*
X0013337Y0147001D02*
X0022794Y0147001D01*
X0022196Y0147600D02*
X0012142Y0147600D01*
X0013504Y0148198D02*
X0021597Y0148198D01*
X0020999Y0148797D02*
X0014103Y0148797D01*
X0014701Y0149395D02*
X0020400Y0149395D01*
X0019802Y0149994D02*
X0015070Y0149994D01*
X0015318Y0150592D02*
X0019203Y0150592D01*
X0018605Y0151191D02*
X0015566Y0151191D01*
X0015700Y0151789D02*
X0018006Y0151789D01*
X0017408Y0152388D02*
X0015700Y0152388D01*
X0015700Y0152986D02*
X0016809Y0152986D01*
X0016211Y0153585D02*
X0015699Y0153585D01*
X0015612Y0154183D02*
X0015451Y0154183D01*
X0014998Y0139819D02*
X0073827Y0139819D01*
X0073228Y0139221D02*
X0014526Y0139221D01*
X0013928Y0138622D02*
X0072926Y0138622D01*
X0072711Y0138023D02*
X0013165Y0138023D01*
X0012314Y0137425D02*
X0072711Y0137425D01*
X0072780Y0136826D02*
X0013575Y0136826D01*
X0014174Y0136228D02*
X0073028Y0136228D01*
X0073474Y0135629D02*
X0014772Y0135629D01*
X0015100Y0135031D02*
X0074289Y0135031D01*
X0076711Y0135031D02*
X0084619Y0135031D01*
X0085217Y0134432D02*
X0015348Y0134432D01*
X0015596Y0133834D02*
X0086153Y0133834D01*
X0087084Y0131648D02*
X0085578Y0131024D01*
X0084424Y0129870D01*
X0083800Y0128364D01*
X0083800Y0126732D01*
X0084424Y0125226D01*
X0085578Y0124072D01*
X0087084Y0123448D01*
X0093916Y0123448D01*
X0095422Y0124072D01*
X0096576Y0125226D01*
X0097200Y0126732D01*
X0097200Y0128364D01*
X0096576Y0129870D01*
X0095422Y0131024D01*
X0093916Y0131648D01*
X0087084Y0131648D01*
X0086582Y0131440D02*
X0015669Y0131440D01*
X0015700Y0132038D02*
X0192800Y0132038D01*
X0192800Y0132637D02*
X0015700Y0132637D01*
X0015700Y0133235D02*
X0192800Y0133235D01*
X0192904Y0133834D02*
X0124847Y0133834D01*
X0125422Y0134072D02*
X0126576Y0135226D01*
X0127200Y0136732D01*
X0127200Y0138364D01*
X0126576Y0139870D01*
X0125422Y0141024D01*
X0123916Y0141648D01*
X0117084Y0141648D01*
X0115578Y0141024D01*
X0114424Y0139870D01*
X0113800Y0138364D01*
X0113800Y0136732D01*
X0114424Y0135226D01*
X0115578Y0134072D01*
X0117084Y0133448D01*
X0123916Y0133448D01*
X0125422Y0134072D01*
X0125783Y0134432D02*
X0193152Y0134432D01*
X0193400Y0135031D02*
X0126381Y0135031D01*
X0126743Y0135629D02*
X0193728Y0135629D01*
X0194326Y0136228D02*
X0126991Y0136228D01*
X0127200Y0136826D02*
X0194925Y0136826D01*
X0195335Y0138023D02*
X0127200Y0138023D01*
X0127200Y0137425D02*
X0196186Y0137425D01*
X0194572Y0138622D02*
X0127093Y0138622D01*
X0126845Y0139221D02*
X0193974Y0139221D01*
X0193502Y0139819D02*
X0126597Y0139819D01*
X0126029Y0140418D02*
X0193254Y0140418D01*
X0193006Y0141016D02*
X0125430Y0141016D01*
X0117004Y0141615D02*
X0093996Y0141615D01*
X0095430Y0141016D02*
X0115570Y0141016D01*
X0114971Y0140418D02*
X0096029Y0140418D01*
X0096597Y0139819D02*
X0114403Y0139819D01*
X0114155Y0139221D02*
X0096845Y0139221D01*
X0097093Y0138622D02*
X0113907Y0138622D01*
X0113800Y0138023D02*
X0097200Y0138023D01*
X0097200Y0137425D02*
X0113800Y0137425D01*
X0113800Y0136826D02*
X0097200Y0136826D01*
X0096991Y0136228D02*
X0114009Y0136228D01*
X0114257Y0135629D02*
X0096743Y0135629D01*
X0096381Y0135031D02*
X0114619Y0135031D01*
X0115217Y0134432D02*
X0095783Y0134432D01*
X0094847Y0133834D02*
X0116153Y0133834D01*
X0117084Y0131648D02*
X0115578Y0131024D01*
X0114424Y0129870D01*
X0113800Y0128364D01*
X0113800Y0126732D01*
X0114424Y0125226D01*
X0115578Y0124072D01*
X0117084Y0123448D01*
X0123916Y0123448D01*
X0125422Y0124072D01*
X0126576Y0125226D01*
X0127200Y0126732D01*
X0127200Y0128364D01*
X0126576Y0129870D01*
X0125422Y0131024D01*
X0123916Y0131648D01*
X0117084Y0131648D01*
X0116582Y0131440D02*
X0094418Y0131440D01*
X0095605Y0130841D02*
X0115395Y0130841D01*
X0114797Y0130243D02*
X0096203Y0130243D01*
X0096669Y0129644D02*
X0114331Y0129644D01*
X0114083Y0129046D02*
X0096917Y0129046D01*
X0097165Y0128447D02*
X0113835Y0128447D01*
X0113800Y0127849D02*
X0097200Y0127849D01*
X0097200Y0127250D02*
X0113800Y0127250D01*
X0113833Y0126652D02*
X0097167Y0126652D01*
X0096919Y0126053D02*
X0114081Y0126053D01*
X0114329Y0125455D02*
X0096671Y0125455D01*
X0096206Y0124856D02*
X0114794Y0124856D01*
X0115392Y0124258D02*
X0095608Y0124258D01*
X0094425Y0123659D02*
X0116575Y0123659D01*
X0117084Y0121648D02*
X0115578Y0121024D01*
X0114424Y0119870D01*
X0113800Y0118364D01*
X0113800Y0116732D01*
X0114424Y0115226D01*
X0115578Y0114072D01*
X0117084Y0113448D01*
X0123916Y0113448D01*
X0125422Y0114072D01*
X0126576Y0115226D01*
X0127200Y0116732D01*
X0127200Y0118364D01*
X0126576Y0119870D01*
X0125422Y0121024D01*
X0123916Y0121648D01*
X0117084Y0121648D01*
X0116160Y0121265D02*
X0094840Y0121265D01*
X0095422Y0121024D02*
X0093916Y0121648D01*
X0087084Y0121648D01*
X0085578Y0121024D01*
X0084424Y0119870D01*
X0083800Y0118364D01*
X0083800Y0116732D01*
X0084424Y0115226D01*
X0085578Y0114072D01*
X0087084Y0113448D01*
X0093916Y0113448D01*
X0095422Y0114072D01*
X0096576Y0115226D01*
X0097200Y0116732D01*
X0097200Y0118364D01*
X0096576Y0119870D01*
X0095422Y0121024D01*
X0095780Y0120667D02*
X0115220Y0120667D01*
X0114622Y0120068D02*
X0096378Y0120068D01*
X0096742Y0119470D02*
X0114258Y0119470D01*
X0114010Y0118871D02*
X0096990Y0118871D01*
X0097200Y0118273D02*
X0113800Y0118273D01*
X0113800Y0117674D02*
X0097200Y0117674D01*
X0097200Y0117076D02*
X0113800Y0117076D01*
X0113906Y0116477D02*
X0097094Y0116477D01*
X0096846Y0115879D02*
X0114154Y0115879D01*
X0114402Y0115280D02*
X0096598Y0115280D01*
X0096032Y0114682D02*
X0114968Y0114682D01*
X0115567Y0114083D02*
X0095433Y0114083D01*
X0094004Y0113485D02*
X0116996Y0113485D01*
X0117084Y0111648D02*
X0115578Y0111024D01*
X0114424Y0109870D01*
X0113800Y0108364D01*
X0113800Y0106732D01*
X0114424Y0105226D01*
X0115578Y0104072D01*
X0117084Y0103448D01*
X0121347Y0103448D01*
X0123147Y0101648D01*
X0117084Y0101648D01*
X0115578Y0101024D01*
X0114424Y0099870D01*
X0113800Y0098364D01*
X0113800Y0096732D01*
X0114424Y0095226D01*
X0115578Y0094072D01*
X0117084Y0093448D01*
X0123916Y0093448D01*
X0125422Y0094072D01*
X0126576Y0095226D01*
X0127200Y0096732D01*
X0127200Y0097595D01*
X0158200Y0066595D01*
X0158200Y0031595D01*
X0161700Y0028095D01*
X0162051Y0027745D01*
X0162467Y0026740D01*
X0163308Y0025898D01*
X0162467Y0025057D01*
X0161846Y0023559D01*
X0161846Y0021938D01*
X0162467Y0020441D01*
X0163613Y0019294D01*
X0165111Y0018674D01*
X0166732Y0018674D01*
X0168229Y0019294D01*
X0169376Y0020441D01*
X0169949Y0021824D01*
X0171456Y0021824D01*
X0172954Y0022444D01*
X0174100Y0023590D01*
X0174720Y0025088D01*
X0174720Y0026709D01*
X0174518Y0027197D01*
X0175573Y0028251D01*
X0176920Y0029599D01*
X0176920Y0104380D01*
X0173289Y0108012D01*
X0173289Y0108103D01*
X0172864Y0109128D01*
X0172080Y0109912D01*
X0171055Y0110337D01*
X0169945Y0110337D01*
X0168920Y0109912D01*
X0168136Y0109128D01*
X0167711Y0108103D01*
X0167711Y0106993D01*
X0168136Y0105968D01*
X0168920Y0105184D01*
X0169945Y0104759D01*
X0170036Y0104759D01*
X0172320Y0102475D01*
X0172320Y0035914D01*
X0171456Y0036272D01*
X0169835Y0036272D01*
X0169699Y0036216D01*
X0169647Y0036477D01*
X0169355Y0037183D01*
X0168931Y0037817D01*
X0168391Y0038357D01*
X0167757Y0038781D01*
X0167051Y0039073D01*
X0166303Y0039222D01*
X0166221Y0039222D01*
X0166221Y0035647D01*
X0165621Y0035647D01*
X0165621Y0039222D01*
X0165540Y0039222D01*
X0164791Y0039073D01*
X0164086Y0038781D01*
X0163451Y0038357D01*
X0162912Y0037817D01*
X0162800Y0037650D01*
X0162800Y0068501D01*
X0161453Y0069848D01*
X0126325Y0104975D01*
X0126576Y0105226D01*
X0127200Y0106732D01*
X0127200Y0108364D01*
X0126576Y0109870D01*
X0125422Y0111024D01*
X0123916Y0111648D01*
X0117084Y0111648D01*
X0115738Y0111090D02*
X0094739Y0111090D01*
X0094947Y0111004D02*
X0094238Y0111298D01*
X0093484Y0111448D01*
X0090800Y0111448D01*
X0090800Y0107848D01*
X0097000Y0107848D01*
X0097000Y0107932D01*
X0096850Y0108686D01*
X0096556Y0109395D01*
X0096129Y0110034D01*
X0095586Y0110577D01*
X0094947Y0111004D01*
X0095671Y0110492D02*
X0115046Y0110492D01*
X0114447Y0109893D02*
X0096223Y0109893D01*
X0096598Y0109295D02*
X0114186Y0109295D01*
X0113938Y0108696D02*
X0096846Y0108696D01*
X0096967Y0108098D02*
X0113800Y0108098D01*
X0113800Y0107499D02*
X0090800Y0107499D01*
X0090800Y0107248D02*
X0090800Y0107848D01*
X0090200Y0107848D01*
X0090200Y0107248D01*
X0090800Y0107248D01*
X0090800Y0103648D01*
X0093484Y0103648D01*
X0094238Y0103798D01*
X0094947Y0104092D01*
X0095586Y0104519D01*
X0096129Y0105062D01*
X0096556Y0105701D01*
X0096850Y0106410D01*
X0097000Y0107164D01*
X0097000Y0107248D01*
X0090800Y0107248D01*
X0090800Y0106901D02*
X0090200Y0106901D01*
X0090200Y0107248D02*
X0090200Y0103648D01*
X0087516Y0103648D01*
X0086762Y0103798D01*
X0086053Y0104092D01*
X0085414Y0104519D01*
X0084871Y0105062D01*
X0084444Y0105701D01*
X0084150Y0106410D01*
X0084000Y0107164D01*
X0084000Y0107248D01*
X0090200Y0107248D01*
X0090200Y0107499D02*
X0077135Y0107499D01*
X0076534Y0107748D02*
X0074466Y0107748D01*
X0072554Y0106956D01*
X0071092Y0105494D01*
X0070300Y0103582D01*
X0070300Y0101514D01*
X0021197Y0101514D01*
X0022095Y0100916D02*
X0070548Y0100916D01*
X0070300Y0101514D02*
X0071092Y0099602D01*
X0072554Y0098140D01*
X0074302Y0097416D01*
X0073581Y0097182D01*
X0072879Y0096824D01*
X0072243Y0096362D01*
X0071686Y0095805D01*
X0071224Y0095169D01*
X0070866Y0094467D01*
X0070623Y0093719D01*
X0070500Y0092942D01*
X0070500Y0092848D01*
X0075200Y0092848D01*
X0075200Y0092248D01*
X0070500Y0092248D01*
X0070500Y0092155D01*
X0070623Y0091377D01*
X0070866Y0090629D01*
X0071224Y0089927D01*
X0071686Y0089291D01*
X0072243Y0088734D01*
X0072879Y0088272D01*
X0073581Y0087914D01*
X0074302Y0087680D01*
X0072554Y0086956D01*
X0071092Y0085494D01*
X0070300Y0083582D01*
X0070300Y0081514D01*
X0071092Y0079602D01*
X0072554Y0078140D01*
X0074466Y0077348D01*
X0076534Y0077348D01*
X0078446Y0078140D01*
X0079908Y0079602D01*
X0080700Y0081514D01*
X0080700Y0083582D01*
X0079908Y0085494D01*
X0078446Y0086956D01*
X0076698Y0087680D01*
X0077419Y0087914D01*
X0078121Y0088272D01*
X0078757Y0088734D01*
X0079314Y0089291D01*
X0079776Y0089927D01*
X0080134Y0090629D01*
X0080377Y0091377D01*
X0080500Y0092155D01*
X0080500Y0092248D01*
X0075800Y0092248D01*
X0075800Y0092848D01*
X0080500Y0092848D01*
X0080500Y0092942D01*
X0080377Y0093719D01*
X0080134Y0094467D01*
X0079776Y0095169D01*
X0079314Y0095805D01*
X0078757Y0096362D01*
X0078121Y0096824D01*
X0077419Y0097182D01*
X0076698Y0097416D01*
X0078446Y0098140D01*
X0079908Y0099602D01*
X0080700Y0101514D01*
X0086762Y0101514D01*
X0087084Y0101648D02*
X0085578Y0101024D01*
X0084424Y0099870D01*
X0083800Y0098364D01*
X0083800Y0096732D01*
X0084424Y0095226D01*
X0085578Y0094072D01*
X0087084Y0093448D01*
X0093916Y0093448D01*
X0095422Y0094072D01*
X0096576Y0095226D01*
X0097200Y0096732D01*
X0097200Y0098364D01*
X0096576Y0099870D01*
X0095422Y0101024D01*
X0093916Y0101648D01*
X0087084Y0101648D01*
X0085470Y0100916D02*
X0080452Y0100916D01*
X0080700Y0101514D02*
X0080700Y0103582D01*
X0079908Y0105494D01*
X0078446Y0106956D01*
X0076534Y0107748D01*
X0078501Y0106901D02*
X0084052Y0106901D01*
X0084195Y0106302D02*
X0079100Y0106302D01*
X0079698Y0105704D02*
X0084443Y0105704D01*
X0084842Y0105105D02*
X0080069Y0105105D01*
X0080317Y0104507D02*
X0085432Y0104507D01*
X0086496Y0103908D02*
X0080565Y0103908D01*
X0080700Y0103310D02*
X0121485Y0103310D01*
X0122084Y0102711D02*
X0080700Y0102711D01*
X0080700Y0102113D02*
X0122683Y0102113D01*
X0126794Y0104507D02*
X0141943Y0104507D01*
X0141600Y0104163D02*
X0141600Y0102848D01*
X0145200Y0102848D01*
X0145200Y0102248D01*
X0145800Y0102248D01*
X0145800Y0098648D01*
X0147115Y0098648D01*
X0149400Y0100933D01*
X0149400Y0102248D01*
X0145800Y0102248D01*
X0145800Y0102848D01*
X0149400Y0102848D01*
X0149400Y0104163D01*
X0147115Y0106448D01*
X0145800Y0106448D01*
X0145800Y0102848D01*
X0145200Y0102848D01*
X0145200Y0106448D01*
X0143885Y0106448D01*
X0141600Y0104163D01*
X0141600Y0103908D02*
X0127392Y0103908D01*
X0127991Y0103310D02*
X0141600Y0103310D01*
X0141600Y0102248D02*
X0141600Y0100933D01*
X0143885Y0098648D01*
X0145200Y0098648D01*
X0145200Y0102248D01*
X0141600Y0102248D01*
X0141600Y0102113D02*
X0129188Y0102113D01*
X0128589Y0102711D02*
X0145200Y0102711D01*
X0145200Y0102113D02*
X0145800Y0102113D01*
X0145800Y0102711D02*
X0172084Y0102711D01*
X0172320Y0102113D02*
X0149400Y0102113D01*
X0149400Y0101514D02*
X0172320Y0101514D01*
X0172320Y0100916D02*
X0149383Y0100916D01*
X0148785Y0100317D02*
X0172320Y0100317D01*
X0172320Y0099719D02*
X0148186Y0099719D01*
X0147588Y0099120D02*
X0172320Y0099120D01*
X0172320Y0098522D02*
X0132779Y0098522D01*
X0132180Y0099120D02*
X0143412Y0099120D01*
X0142814Y0099719D02*
X0131582Y0099719D01*
X0130983Y0100317D02*
X0142215Y0100317D01*
X0141617Y0100916D02*
X0130385Y0100916D01*
X0129786Y0101514D02*
X0141600Y0101514D01*
X0145200Y0101514D02*
X0145800Y0101514D01*
X0145800Y0100916D02*
X0145200Y0100916D01*
X0145200Y0100317D02*
X0145800Y0100317D01*
X0145800Y0099719D02*
X0145200Y0099719D01*
X0145200Y0099120D02*
X0145800Y0099120D01*
X0145800Y0103310D02*
X0145200Y0103310D01*
X0145200Y0103908D02*
X0145800Y0103908D01*
X0145800Y0104507D02*
X0145200Y0104507D01*
X0145200Y0105105D02*
X0145800Y0105105D01*
X0145800Y0105704D02*
X0145200Y0105704D01*
X0145200Y0106302D02*
X0145800Y0106302D01*
X0147261Y0106302D02*
X0167997Y0106302D01*
X0167749Y0106901D02*
X0127200Y0106901D01*
X0127200Y0107499D02*
X0167711Y0107499D01*
X0167711Y0108098D02*
X0127200Y0108098D01*
X0127062Y0108696D02*
X0167957Y0108696D01*
X0168303Y0109295D02*
X0126814Y0109295D01*
X0126553Y0109893D02*
X0168901Y0109893D01*
X0172099Y0109893D02*
X0193471Y0109893D01*
X0193223Y0110492D02*
X0125954Y0110492D01*
X0125262Y0111090D02*
X0192975Y0111090D01*
X0192800Y0111689D02*
X0064400Y0111689D01*
X0064400Y0112248D02*
X0060800Y0112248D01*
X0060800Y0108648D01*
X0062115Y0108648D01*
X0064400Y0110933D01*
X0064400Y0112248D01*
X0064400Y0112848D02*
X0064400Y0114163D01*
X0062115Y0116448D01*
X0060800Y0116448D01*
X0060800Y0112848D01*
X0064400Y0112848D01*
X0064400Y0112886D02*
X0192800Y0112886D01*
X0192800Y0112288D02*
X0060800Y0112288D01*
X0060800Y0112248D02*
X0060800Y0112848D01*
X0060200Y0112848D01*
X0060200Y0112248D01*
X0060800Y0112248D01*
X0060800Y0111689D02*
X0060200Y0111689D01*
X0060200Y0112248D02*
X0060200Y0108648D01*
X0058885Y0108648D01*
X0056600Y0110933D01*
X0056600Y0112248D01*
X0060200Y0112248D01*
X0060200Y0112288D02*
X0050800Y0112288D01*
X0050800Y0112248D02*
X0050800Y0112848D01*
X0054400Y0112848D01*
X0054400Y0114163D01*
X0052115Y0116448D01*
X0050800Y0116448D01*
X0050800Y0112848D01*
X0050200Y0112848D01*
X0050200Y0112248D01*
X0050800Y0112248D01*
X0050800Y0108648D01*
X0052115Y0108648D01*
X0054400Y0110933D01*
X0054400Y0112248D01*
X0050800Y0112248D01*
X0050800Y0111689D02*
X0050200Y0111689D01*
X0050200Y0112248D02*
X0050200Y0108648D01*
X0048885Y0108648D01*
X0046600Y0110933D01*
X0046600Y0112248D01*
X0050200Y0112248D01*
X0050200Y0112288D02*
X0044600Y0112288D01*
X0044600Y0112886D02*
X0046600Y0112886D01*
X0046600Y0112848D02*
X0050200Y0112848D01*
X0050200Y0116448D01*
X0048885Y0116448D01*
X0046600Y0114163D01*
X0046600Y0112848D01*
X0046600Y0113485D02*
X0044600Y0113485D01*
X0044600Y0114083D02*
X0046600Y0114083D01*
X0047118Y0114682D02*
X0044165Y0114682D01*
X0044600Y0114246D02*
X0042198Y0116648D01*
X0038802Y0116648D01*
X0036400Y0114246D01*
X0036400Y0110850D01*
X0038802Y0108448D01*
X0042198Y0108448D01*
X0044600Y0110850D01*
X0044600Y0114246D01*
X0043566Y0115280D02*
X0047717Y0115280D01*
X0048315Y0115879D02*
X0042968Y0115879D01*
X0042369Y0116477D02*
X0083906Y0116477D01*
X0083800Y0117076D02*
X0013158Y0117076D01*
X0013925Y0116477D02*
X0038631Y0116477D01*
X0038032Y0115879D02*
X0014523Y0115879D01*
X0014997Y0115280D02*
X0037434Y0115280D01*
X0036835Y0114682D02*
X0015245Y0114682D01*
X0015493Y0114083D02*
X0036400Y0114083D01*
X0036400Y0113485D02*
X0015700Y0113485D01*
X0015700Y0112886D02*
X0036400Y0112886D01*
X0036400Y0112288D02*
X0015700Y0112288D01*
X0015700Y0111689D02*
X0036400Y0111689D01*
X0036400Y0111090D02*
X0015525Y0111090D01*
X0015277Y0110492D02*
X0036758Y0110492D01*
X0037356Y0109893D02*
X0015029Y0109893D01*
X0014601Y0109295D02*
X0037955Y0109295D01*
X0038553Y0108696D02*
X0014002Y0108696D01*
X0013345Y0108098D02*
X0084033Y0108098D01*
X0084000Y0107932D02*
X0084000Y0107848D01*
X0090200Y0107848D01*
X0090200Y0111448D01*
X0087516Y0111448D01*
X0086762Y0111298D01*
X0086053Y0111004D01*
X0085414Y0110577D01*
X0084871Y0110034D01*
X0084444Y0109395D01*
X0084150Y0108686D01*
X0084000Y0107932D01*
X0084154Y0108696D02*
X0062164Y0108696D01*
X0062762Y0109295D02*
X0084402Y0109295D01*
X0084777Y0109893D02*
X0063361Y0109893D01*
X0063959Y0110492D02*
X0085329Y0110492D01*
X0086261Y0111090D02*
X0064400Y0111090D01*
X0064400Y0113485D02*
X0086996Y0113485D01*
X0085567Y0114083D02*
X0064400Y0114083D01*
X0063882Y0114682D02*
X0084968Y0114682D01*
X0084402Y0115280D02*
X0063283Y0115280D01*
X0062685Y0115879D02*
X0084154Y0115879D01*
X0083800Y0117674D02*
X0012322Y0117674D01*
X0013579Y0118273D02*
X0083800Y0118273D01*
X0084010Y0118871D02*
X0014177Y0118871D01*
X0014776Y0119470D02*
X0084258Y0119470D01*
X0084622Y0120068D02*
X0015101Y0120068D01*
X0015349Y0120667D02*
X0085220Y0120667D01*
X0086160Y0121265D02*
X0015597Y0121265D01*
X0015700Y0121864D02*
X0141400Y0121864D01*
X0141400Y0121732D02*
X0142024Y0120226D01*
X0143178Y0119072D01*
X0144684Y0118448D01*
X0146316Y0118448D01*
X0147822Y0119072D01*
X0148976Y0120226D01*
X0149600Y0121732D01*
X0149600Y0123364D01*
X0148976Y0124870D01*
X0147822Y0126024D01*
X0146316Y0126648D01*
X0144684Y0126648D01*
X0143178Y0126024D01*
X0142024Y0124870D01*
X0141400Y0123364D01*
X0141400Y0121732D01*
X0141594Y0121265D02*
X0124840Y0121265D01*
X0125780Y0120667D02*
X0141841Y0120667D01*
X0142182Y0120068D02*
X0126378Y0120068D01*
X0126742Y0119470D02*
X0142780Y0119470D01*
X0143663Y0118871D02*
X0126990Y0118871D01*
X0127200Y0118273D02*
X0194921Y0118273D01*
X0194323Y0118871D02*
X0147337Y0118871D01*
X0148220Y0119470D02*
X0193724Y0119470D01*
X0193399Y0120068D02*
X0148818Y0120068D01*
X0149159Y0120667D02*
X0193151Y0120667D01*
X0192903Y0121265D02*
X0149406Y0121265D01*
X0149600Y0121864D02*
X0192800Y0121864D01*
X0192800Y0122462D02*
X0149600Y0122462D01*
X0149600Y0123061D02*
X0192800Y0123061D01*
X0192832Y0123659D02*
X0149478Y0123659D01*
X0149230Y0124258D02*
X0193080Y0124258D01*
X0193328Y0124856D02*
X0148982Y0124856D01*
X0148392Y0125455D02*
X0193576Y0125455D01*
X0194151Y0126053D02*
X0147751Y0126053D01*
X0143249Y0126053D02*
X0126919Y0126053D01*
X0126671Y0125455D02*
X0142608Y0125455D01*
X0142018Y0124856D02*
X0126206Y0124856D01*
X0125608Y0124258D02*
X0141770Y0124258D01*
X0141522Y0123659D02*
X0124425Y0123659D01*
X0127167Y0126652D02*
X0194750Y0126652D01*
X0195764Y0127250D02*
X0127200Y0127250D01*
X0127200Y0127849D02*
X0195757Y0127849D01*
X0194747Y0128447D02*
X0127165Y0128447D01*
X0126917Y0129046D02*
X0194148Y0129046D01*
X0193574Y0129644D02*
X0126669Y0129644D01*
X0126203Y0130243D02*
X0193326Y0130243D01*
X0193078Y0130841D02*
X0125605Y0130841D01*
X0124418Y0131440D02*
X0192831Y0131440D01*
X0196178Y0117674D02*
X0127200Y0117674D01*
X0127200Y0117076D02*
X0195342Y0117076D01*
X0194575Y0116477D02*
X0127094Y0116477D01*
X0126846Y0115879D02*
X0193977Y0115879D01*
X0193503Y0115280D02*
X0126598Y0115280D01*
X0126032Y0114682D02*
X0193255Y0114682D01*
X0193007Y0114083D02*
X0125433Y0114083D01*
X0124004Y0113485D02*
X0192800Y0113485D01*
X0193899Y0109295D02*
X0172697Y0109295D01*
X0173043Y0108696D02*
X0194498Y0108696D01*
X0195155Y0108098D02*
X0173289Y0108098D01*
X0173801Y0107499D02*
X0196366Y0107499D01*
X0194999Y0106901D02*
X0174400Y0106901D01*
X0174998Y0106302D02*
X0194400Y0106302D01*
X0193802Y0105704D02*
X0175597Y0105704D01*
X0176195Y0105105D02*
X0193431Y0105105D01*
X0193183Y0104507D02*
X0176794Y0104507D01*
X0176920Y0103908D02*
X0192935Y0103908D01*
X0192800Y0103310D02*
X0176920Y0103310D01*
X0176920Y0102711D02*
X0192800Y0102711D01*
X0192800Y0102113D02*
X0176920Y0102113D01*
X0176920Y0100317D02*
X0193296Y0100317D01*
X0193543Y0099719D02*
X0176920Y0099719D01*
X0176920Y0099120D02*
X0194074Y0099120D01*
X0194672Y0098522D02*
X0176920Y0098522D01*
X0176920Y0097923D02*
X0195577Y0097923D01*
X0195944Y0097325D02*
X0176920Y0097325D01*
X0176920Y0096726D02*
X0194824Y0096726D01*
X0194226Y0096128D02*
X0176920Y0096128D01*
X0176920Y0095529D02*
X0193627Y0095529D01*
X0193358Y0094931D02*
X0176920Y0094931D01*
X0176920Y0094332D02*
X0193111Y0094332D01*
X0192863Y0093734D02*
X0176920Y0093734D01*
X0176920Y0093135D02*
X0192800Y0093135D01*
X0192800Y0092537D02*
X0176920Y0092537D01*
X0176920Y0091938D02*
X0192800Y0091938D01*
X0192872Y0091340D02*
X0176920Y0091340D01*
X0176920Y0090741D02*
X0193120Y0090741D01*
X0193368Y0090143D02*
X0176920Y0090143D01*
X0176920Y0089544D02*
X0193650Y0089544D01*
X0194249Y0088946D02*
X0176920Y0088946D01*
X0176920Y0088347D02*
X0194847Y0088347D01*
X0195999Y0087749D02*
X0176920Y0087749D01*
X0176920Y0087150D02*
X0195522Y0087150D01*
X0194650Y0086552D02*
X0176920Y0086552D01*
X0176920Y0085953D02*
X0194051Y0085953D01*
X0193534Y0085355D02*
X0176920Y0085355D01*
X0176920Y0084756D02*
X0193286Y0084756D01*
X0193038Y0084157D02*
X0176920Y0084157D01*
X0176920Y0083559D02*
X0192800Y0083559D01*
X0192800Y0082960D02*
X0176920Y0082960D01*
X0176920Y0082362D02*
X0192800Y0082362D01*
X0192800Y0081763D02*
X0176920Y0081763D01*
X0176920Y0081165D02*
X0192944Y0081165D01*
X0193192Y0080566D02*
X0176920Y0080566D01*
X0176920Y0079968D02*
X0193440Y0079968D01*
X0193825Y0079369D02*
X0176920Y0079369D01*
X0176920Y0078771D02*
X0194423Y0078771D01*
X0195022Y0078172D02*
X0176920Y0078172D01*
X0176920Y0077574D02*
X0196420Y0077574D01*
X0195676Y0076975D02*
X0176920Y0076975D01*
X0176920Y0076377D02*
X0194763Y0076377D01*
X0194167Y0075778D02*
X0176920Y0075778D01*
X0176920Y0075180D02*
X0193732Y0075180D01*
X0193424Y0074581D02*
X0176920Y0074581D01*
X0176920Y0073983D02*
X0193209Y0073983D01*
X0193070Y0073384D02*
X0176920Y0073384D01*
X0176920Y0072786D02*
X0197700Y0072786D01*
X0197700Y0072248D02*
X0193000Y0072248D01*
X0193000Y0072155D01*
X0193123Y0071377D01*
X0193366Y0070629D01*
X0193724Y0069927D01*
X0194186Y0069291D01*
X0194743Y0068734D01*
X0195379Y0068272D01*
X0196081Y0067914D01*
X0196829Y0067671D01*
X0197606Y0067548D01*
X0197700Y0067548D01*
X0197700Y0072248D01*
X0197700Y0072187D02*
X0198300Y0072187D01*
X0198300Y0071589D02*
X0197700Y0071589D01*
X0197700Y0070990D02*
X0198300Y0070990D01*
X0198300Y0070392D02*
X0197700Y0070392D01*
X0197700Y0069793D02*
X0198300Y0069793D01*
X0198300Y0069195D02*
X0197700Y0069195D01*
X0197700Y0068596D02*
X0198300Y0068596D01*
X0198300Y0067998D02*
X0197700Y0067998D01*
X0195917Y0067998D02*
X0176920Y0067998D01*
X0176920Y0068596D02*
X0194933Y0068596D01*
X0194282Y0069195D02*
X0176920Y0069195D01*
X0176920Y0069793D02*
X0193821Y0069793D01*
X0193487Y0070392D02*
X0176920Y0070392D01*
X0176920Y0070990D02*
X0193249Y0070990D01*
X0193090Y0071589D02*
X0176920Y0071589D01*
X0176920Y0072187D02*
X0193000Y0072187D01*
X0200083Y0067998D02*
X0200850Y0067998D01*
X0200850Y0067399D02*
X0176920Y0067399D01*
X0176920Y0066801D02*
X0200850Y0066801D01*
X0200850Y0066202D02*
X0176920Y0066202D01*
X0176920Y0065604D02*
X0200850Y0065604D01*
X0200850Y0065005D02*
X0176920Y0065005D01*
X0176920Y0064407D02*
X0200850Y0064407D01*
X0200850Y0063808D02*
X0176920Y0063808D01*
X0176920Y0063210D02*
X0200850Y0063210D01*
X0200850Y0062611D02*
X0176920Y0062611D01*
X0176920Y0062013D02*
X0200850Y0062013D01*
X0200850Y0061414D02*
X0176920Y0061414D01*
X0176920Y0060816D02*
X0200850Y0060816D01*
X0200850Y0060217D02*
X0176920Y0060217D01*
X0176920Y0059619D02*
X0200850Y0059619D01*
X0200850Y0059020D02*
X0176920Y0059020D01*
X0176920Y0058421D02*
X0200850Y0058421D01*
X0200850Y0057823D02*
X0176920Y0057823D01*
X0176920Y0057224D02*
X0200850Y0057224D01*
X0200850Y0056626D02*
X0176920Y0056626D01*
X0176920Y0056027D02*
X0200850Y0056027D01*
X0200850Y0055429D02*
X0176920Y0055429D01*
X0176920Y0054830D02*
X0200850Y0054830D01*
X0200850Y0054232D02*
X0176920Y0054232D01*
X0176920Y0053633D02*
X0200850Y0053633D01*
X0200850Y0053035D02*
X0176920Y0053035D01*
X0176920Y0052436D02*
X0200850Y0052436D01*
X0200850Y0051838D02*
X0176920Y0051838D01*
X0176920Y0051239D02*
X0200850Y0051239D01*
X0200850Y0050641D02*
X0176920Y0050641D01*
X0176920Y0050042D02*
X0183412Y0050042D01*
X0184586Y0050528D02*
X0181972Y0049446D01*
X0179972Y0047446D01*
X0178890Y0044832D01*
X0178890Y0042004D01*
X0179972Y0039390D01*
X0181972Y0037390D01*
X0184586Y0036308D01*
X0187414Y0036308D01*
X0190028Y0037390D01*
X0192028Y0039390D01*
X0193110Y0042004D01*
X0193110Y0044832D01*
X0192028Y0047446D01*
X0190028Y0049446D01*
X0187414Y0050528D01*
X0184586Y0050528D01*
X0181970Y0049444D02*
X0176920Y0049444D01*
X0176920Y0048845D02*
X0181372Y0048845D01*
X0180773Y0048247D02*
X0176920Y0048247D01*
X0176920Y0047648D02*
X0180175Y0047648D01*
X0179808Y0047050D02*
X0176920Y0047050D01*
X0176920Y0046451D02*
X0179560Y0046451D01*
X0179312Y0045853D02*
X0176920Y0045853D01*
X0176920Y0045254D02*
X0179064Y0045254D01*
X0178890Y0044656D02*
X0176920Y0044656D01*
X0176920Y0044057D02*
X0178890Y0044057D01*
X0178890Y0043459D02*
X0176920Y0043459D01*
X0176920Y0042860D02*
X0178890Y0042860D01*
X0178890Y0042262D02*
X0176920Y0042262D01*
X0176920Y0041663D02*
X0179031Y0041663D01*
X0179279Y0041065D02*
X0176920Y0041065D01*
X0176920Y0040466D02*
X0179527Y0040466D01*
X0179775Y0039868D02*
X0176920Y0039868D01*
X0176920Y0039269D02*
X0180094Y0039269D01*
X0180692Y0038671D02*
X0176920Y0038671D01*
X0176920Y0038072D02*
X0181291Y0038072D01*
X0181889Y0037474D02*
X0176920Y0037474D01*
X0176920Y0036875D02*
X0183216Y0036875D01*
X0188784Y0036875D02*
X0200850Y0036875D01*
X0200850Y0036277D02*
X0176920Y0036277D01*
X0176920Y0035678D02*
X0200850Y0035678D01*
X0200850Y0035080D02*
X0176920Y0035080D01*
X0176920Y0034481D02*
X0200850Y0034481D01*
X0200850Y0033883D02*
X0176920Y0033883D01*
X0176920Y0033284D02*
X0200850Y0033284D01*
X0200850Y0032686D02*
X0176920Y0032686D01*
X0176920Y0032087D02*
X0200850Y0032087D01*
X0200850Y0031488D02*
X0176920Y0031488D01*
X0176920Y0030890D02*
X0200850Y0030890D01*
X0200850Y0030291D02*
X0176920Y0030291D01*
X0176920Y0029693D02*
X0200850Y0029693D01*
X0200850Y0029094D02*
X0176416Y0029094D01*
X0175818Y0028496D02*
X0200850Y0028496D01*
X0200850Y0027897D02*
X0175219Y0027897D01*
X0174621Y0027299D02*
X0200850Y0027299D01*
X0200850Y0026700D02*
X0174720Y0026700D01*
X0174720Y0026102D02*
X0200850Y0026102D01*
X0200850Y0025503D02*
X0174720Y0025503D01*
X0174645Y0024905D02*
X0200850Y0024905D01*
X0200850Y0024306D02*
X0174397Y0024306D01*
X0174149Y0023708D02*
X0200850Y0023708D01*
X0200850Y0023109D02*
X0173619Y0023109D01*
X0173021Y0022511D02*
X0200850Y0022511D01*
X0200850Y0021912D02*
X0171670Y0021912D01*
X0169737Y0021314D02*
X0183440Y0021314D01*
X0181995Y0020715D02*
X0169489Y0020715D01*
X0169052Y0020117D02*
X0181383Y0020117D01*
X0180785Y0019518D02*
X0168453Y0019518D01*
X0167325Y0018920D02*
X0180186Y0018920D01*
X0179813Y0018321D02*
X0160717Y0018321D01*
X0160717Y0018437D02*
X0160036Y0020079D01*
X0158779Y0021336D01*
X0157137Y0022017D01*
X0155359Y0022017D01*
X0153717Y0021336D01*
X0152460Y0020079D01*
X0152098Y0019206D01*
X0151828Y0019856D01*
X0150682Y0021002D01*
X0149185Y0021623D01*
X0147563Y0021623D01*
X0146066Y0021002D01*
X0144920Y0019856D01*
X0144437Y0018691D01*
X0143954Y0019856D01*
X0142808Y0021002D01*
X0141311Y0021623D01*
X0139689Y0021623D01*
X0138192Y0021002D01*
X0137046Y0019856D01*
X0136563Y0018691D01*
X0136080Y0019856D01*
X0134934Y0021002D01*
X0133437Y0021623D01*
X0131815Y0021623D01*
X0130318Y0021002D01*
X0129172Y0019856D01*
X0128902Y0019206D01*
X0128540Y0020079D01*
X0127283Y0021336D01*
X0125641Y0022017D01*
X0123863Y0022017D01*
X0122221Y0021336D01*
X0120964Y0020079D01*
X0120283Y0018437D01*
X0120283Y0016659D01*
X0120964Y0015017D01*
X0122221Y0013760D01*
X0123863Y0013080D01*
X0125641Y0013080D01*
X0127283Y0013760D01*
X0128540Y0015017D01*
X0128902Y0015890D01*
X0129172Y0015240D01*
X0130318Y0014094D01*
X0131815Y0013473D01*
X0133437Y0013473D01*
X0134934Y0014094D01*
X0136080Y0015240D01*
X0136563Y0016405D01*
X0137046Y0015240D01*
X0138192Y0014094D01*
X0139689Y0013473D01*
X0141311Y0013473D01*
X0142808Y0014094D01*
X0143954Y0015240D01*
X0144437Y0016405D01*
X0144920Y0015240D01*
X0146066Y0014094D01*
X0147563Y0013473D01*
X0149185Y0013473D01*
X0150682Y0014094D01*
X0151828Y0015240D01*
X0152098Y0015890D01*
X0152460Y0015017D01*
X0153717Y0013760D01*
X0155359Y0013080D01*
X0157137Y0013080D01*
X0158779Y0013760D01*
X0160036Y0015017D01*
X0160717Y0016659D01*
X0160717Y0018437D01*
X0160517Y0018920D02*
X0164517Y0018920D01*
X0163389Y0019518D02*
X0160269Y0019518D01*
X0159999Y0020117D02*
X0162791Y0020117D01*
X0162353Y0020715D02*
X0159400Y0020715D01*
X0158802Y0021314D02*
X0162105Y0021314D01*
X0161857Y0021912D02*
X0157388Y0021912D01*
X0155108Y0021912D02*
X0125892Y0021912D01*
X0127306Y0021314D02*
X0131069Y0021314D01*
X0130031Y0020715D02*
X0127904Y0020715D01*
X0128503Y0020117D02*
X0129432Y0020117D01*
X0129032Y0019518D02*
X0128773Y0019518D01*
X0128669Y0015329D02*
X0129135Y0015329D01*
X0129681Y0014730D02*
X0128254Y0014730D01*
X0127655Y0014132D02*
X0130280Y0014132D01*
X0131671Y0013533D02*
X0126736Y0013533D01*
X0122768Y0013533D02*
X0098283Y0013533D01*
X0098198Y0013448D02*
X0100600Y0015850D01*
X0100600Y0019246D01*
X0098198Y0021648D01*
X0094802Y0021648D01*
X0092400Y0019246D01*
X0092400Y0015850D01*
X0094802Y0013448D01*
X0098198Y0013448D01*
X0098882Y0014132D02*
X0113401Y0014132D01*
X0113885Y0013648D02*
X0111600Y0015933D01*
X0111600Y0017248D01*
X0115200Y0017248D01*
X0115800Y0017248D01*
X0115800Y0013648D01*
X0117115Y0013648D01*
X0119400Y0015933D01*
X0119400Y0017248D01*
X0115800Y0017248D01*
X0115800Y0017848D01*
X0119400Y0017848D01*
X0119400Y0019163D01*
X0117115Y0021448D01*
X0115800Y0021448D01*
X0115800Y0017848D01*
X0115200Y0017848D01*
X0115200Y0017248D01*
X0115200Y0013648D01*
X0113885Y0013648D01*
X0115200Y0014132D02*
X0115800Y0014132D01*
X0115800Y0014730D02*
X0115200Y0014730D01*
X0115200Y0015329D02*
X0115800Y0015329D01*
X0115800Y0015927D02*
X0115200Y0015927D01*
X0115200Y0016526D02*
X0115800Y0016526D01*
X0115800Y0017124D02*
X0115200Y0017124D01*
X0115200Y0017723D02*
X0100600Y0017723D01*
X0100600Y0018321D02*
X0111600Y0018321D01*
X0111600Y0017848D02*
X0115200Y0017848D01*
X0115200Y0021448D01*
X0113885Y0021448D01*
X0111600Y0019163D01*
X0111600Y0017848D01*
X0111600Y0017124D02*
X0100600Y0017124D01*
X0100600Y0016526D02*
X0111600Y0016526D01*
X0111605Y0015927D02*
X0100600Y0015927D01*
X0100079Y0015329D02*
X0112204Y0015329D01*
X0112802Y0014730D02*
X0099480Y0014730D01*
X0102302Y0018448D02*
X0105698Y0018448D01*
X0108100Y0020850D01*
X0108100Y0024246D01*
X0105698Y0026648D01*
X0102302Y0026648D01*
X0099900Y0024246D01*
X0099900Y0020850D01*
X0102302Y0018448D01*
X0101830Y0018920D02*
X0100600Y0018920D01*
X0100328Y0019518D02*
X0101231Y0019518D01*
X0100633Y0020117D02*
X0099730Y0020117D01*
X0100034Y0020715D02*
X0099131Y0020715D01*
X0098532Y0021314D02*
X0099900Y0021314D01*
X0099900Y0021912D02*
X0044600Y0021912D01*
X0044600Y0021314D02*
X0078467Y0021314D01*
X0078802Y0021648D02*
X0076400Y0019246D01*
X0076400Y0015850D01*
X0078802Y0013448D01*
X0082198Y0013448D01*
X0084600Y0015850D01*
X0084600Y0019246D01*
X0082198Y0021648D01*
X0078802Y0021648D01*
X0077869Y0020715D02*
X0066360Y0020715D01*
X0066822Y0020524D02*
X0065316Y0021148D01*
X0063684Y0021148D01*
X0062178Y0020524D01*
X0061024Y0019370D01*
X0060400Y0017864D01*
X0060400Y0016232D01*
X0061024Y0014726D01*
X0062178Y0013572D01*
X0063684Y0012948D01*
X0065316Y0012948D01*
X0066822Y0013572D01*
X0067976Y0014726D01*
X0068600Y0016232D01*
X0068600Y0017864D01*
X0067976Y0019370D01*
X0066822Y0020524D01*
X0067230Y0020117D02*
X0077270Y0020117D01*
X0076672Y0019518D02*
X0067828Y0019518D01*
X0068163Y0018920D02*
X0076400Y0018920D01*
X0076400Y0018321D02*
X0068410Y0018321D01*
X0068600Y0017723D02*
X0076400Y0017723D01*
X0076400Y0017124D02*
X0068600Y0017124D01*
X0068600Y0016526D02*
X0076400Y0016526D01*
X0076400Y0015927D02*
X0068474Y0015927D01*
X0068226Y0015329D02*
X0076921Y0015329D01*
X0077520Y0014730D02*
X0067978Y0014730D01*
X0067382Y0014132D02*
X0078118Y0014132D01*
X0078717Y0013533D02*
X0066728Y0013533D01*
X0062272Y0013533D02*
X0044600Y0013533D01*
X0044600Y0012935D02*
X0179026Y0012935D01*
X0178890Y0013533D02*
X0158232Y0013533D01*
X0159151Y0014132D02*
X0178890Y0014132D01*
X0178890Y0014730D02*
X0159750Y0014730D01*
X0160165Y0015329D02*
X0178890Y0015329D01*
X0178890Y0015927D02*
X0160413Y0015927D01*
X0160661Y0016526D02*
X0179069Y0016526D01*
X0179317Y0017124D02*
X0160717Y0017124D01*
X0160717Y0017723D02*
X0179565Y0017723D01*
X0179274Y0012336D02*
X0044600Y0012336D01*
X0044600Y0011738D02*
X0179522Y0011738D01*
X0179770Y0011139D02*
X0044600Y0011139D01*
X0044291Y0010541D02*
X0180082Y0010541D01*
X0180680Y0009942D02*
X0043692Y0009942D01*
X0043094Y0009344D02*
X0181279Y0009344D01*
X0190721Y0009344D02*
X0200850Y0009344D01*
X0200850Y0009942D02*
X0191320Y0009942D01*
X0191918Y0010541D02*
X0200850Y0010541D01*
X0200850Y0011139D02*
X0192230Y0011139D01*
X0192478Y0011738D02*
X0200850Y0011738D01*
X0200850Y0012336D02*
X0192726Y0012336D01*
X0192974Y0012935D02*
X0200850Y0012935D01*
X0200850Y0013533D02*
X0193110Y0013533D01*
X0193110Y0014132D02*
X0200850Y0014132D01*
X0200850Y0014730D02*
X0193110Y0014730D01*
X0193110Y0015329D02*
X0200850Y0015329D01*
X0200850Y0015927D02*
X0193110Y0015927D01*
X0192931Y0016526D02*
X0200850Y0016526D01*
X0200850Y0017124D02*
X0192683Y0017124D01*
X0192435Y0017723D02*
X0200850Y0017723D01*
X0200850Y0018321D02*
X0192187Y0018321D01*
X0191814Y0018920D02*
X0200850Y0018920D01*
X0200850Y0019518D02*
X0191215Y0019518D01*
X0190617Y0020117D02*
X0200850Y0020117D01*
X0200850Y0020715D02*
X0190005Y0020715D01*
X0188560Y0021314D02*
X0200850Y0021314D01*
X0200850Y0037474D02*
X0190111Y0037474D01*
X0190709Y0038072D02*
X0200850Y0038072D01*
X0200850Y0038671D02*
X0191308Y0038671D01*
X0191906Y0039269D02*
X0200850Y0039269D01*
X0200850Y0039868D02*
X0192225Y0039868D01*
X0192473Y0040466D02*
X0200850Y0040466D01*
X0200850Y0041065D02*
X0192721Y0041065D01*
X0192969Y0041663D02*
X0200850Y0041663D01*
X0200850Y0042262D02*
X0193110Y0042262D01*
X0193110Y0042860D02*
X0200850Y0042860D01*
X0200850Y0043459D02*
X0193110Y0043459D01*
X0193110Y0044057D02*
X0200850Y0044057D01*
X0200850Y0044656D02*
X0193110Y0044656D01*
X0192936Y0045254D02*
X0200850Y0045254D01*
X0200850Y0045853D02*
X0192688Y0045853D01*
X0192440Y0046451D02*
X0200850Y0046451D01*
X0200850Y0047050D02*
X0192192Y0047050D01*
X0191825Y0047648D02*
X0200850Y0047648D01*
X0200850Y0048247D02*
X0191227Y0048247D01*
X0190628Y0048845D02*
X0200850Y0048845D01*
X0200850Y0049444D02*
X0190030Y0049444D01*
X0188588Y0050042D02*
X0200850Y0050042D01*
X0172320Y0050042D02*
X0162800Y0050042D01*
X0162800Y0049444D02*
X0172320Y0049444D01*
X0172320Y0048845D02*
X0162800Y0048845D01*
X0162800Y0048247D02*
X0172320Y0048247D01*
X0172320Y0047648D02*
X0162800Y0047648D01*
X0162800Y0047050D02*
X0172320Y0047050D01*
X0172320Y0046451D02*
X0162800Y0046451D01*
X0162800Y0045853D02*
X0172320Y0045853D01*
X0172320Y0045254D02*
X0162800Y0045254D01*
X0162800Y0044656D02*
X0172320Y0044656D01*
X0172320Y0044057D02*
X0162800Y0044057D01*
X0162800Y0043459D02*
X0172320Y0043459D01*
X0172320Y0042860D02*
X0162800Y0042860D01*
X0162800Y0042262D02*
X0172320Y0042262D01*
X0172320Y0041663D02*
X0162800Y0041663D01*
X0162800Y0041065D02*
X0172320Y0041065D01*
X0172320Y0040466D02*
X0162800Y0040466D01*
X0162800Y0039868D02*
X0172320Y0039868D01*
X0172320Y0039269D02*
X0162800Y0039269D01*
X0162800Y0038671D02*
X0163921Y0038671D01*
X0163166Y0038072D02*
X0162800Y0038072D01*
X0165621Y0038072D02*
X0166221Y0038072D01*
X0166221Y0037474D02*
X0165621Y0037474D01*
X0165621Y0036875D02*
X0166221Y0036875D01*
X0166221Y0036277D02*
X0165621Y0036277D01*
X0165621Y0035678D02*
X0166221Y0035678D01*
X0166221Y0038671D02*
X0165621Y0038671D01*
X0167922Y0038671D02*
X0172320Y0038671D01*
X0172320Y0038072D02*
X0168676Y0038072D01*
X0169161Y0037474D02*
X0172320Y0037474D01*
X0172320Y0036875D02*
X0169482Y0036875D01*
X0169687Y0036277D02*
X0172320Y0036277D01*
X0161898Y0027897D02*
X0151163Y0027897D01*
X0151163Y0027977D02*
X0150738Y0029002D01*
X0149954Y0029786D01*
X0148929Y0030211D01*
X0147819Y0030211D01*
X0146943Y0029848D01*
X0134644Y0029848D01*
X0134580Y0029912D01*
X0133555Y0030337D01*
X0132445Y0030337D01*
X0131420Y0029912D01*
X0130636Y0029128D01*
X0130211Y0028103D01*
X0130211Y0026993D01*
X0130636Y0025968D01*
X0131420Y0025184D01*
X0132445Y0024759D01*
X0133555Y0024759D01*
X0134580Y0025184D01*
X0134644Y0025248D01*
X0146604Y0025248D01*
X0146794Y0025058D01*
X0147819Y0024633D01*
X0148929Y0024633D01*
X0149954Y0025058D01*
X0150738Y0025842D01*
X0151163Y0026867D01*
X0151163Y0027977D01*
X0150948Y0028496D02*
X0161299Y0028496D01*
X0160701Y0029094D02*
X0150646Y0029094D01*
X0150047Y0029693D02*
X0160102Y0029693D01*
X0159504Y0030291D02*
X0133665Y0030291D01*
X0132335Y0030291D02*
X0121496Y0030291D01*
X0121453Y0030248D02*
X0122800Y0031595D01*
X0122800Y0043448D01*
X0123916Y0043448D01*
X0125422Y0044072D01*
X0126576Y0045226D01*
X0127200Y0046732D01*
X0127200Y0048364D01*
X0126576Y0049870D01*
X0125422Y0051024D01*
X0123916Y0051648D01*
X0117084Y0051648D01*
X0115578Y0051024D01*
X0114424Y0049870D01*
X0113800Y0048364D01*
X0113800Y0046732D01*
X0114424Y0045226D01*
X0115578Y0044072D01*
X0117084Y0043448D01*
X0118200Y0043448D01*
X0118200Y0033501D01*
X0116347Y0031648D01*
X0113802Y0031648D01*
X0111400Y0029246D01*
X0111400Y0025850D01*
X0113802Y0023448D01*
X0117198Y0023448D01*
X0119600Y0025850D01*
X0119600Y0028395D01*
X0121453Y0030248D01*
X0120898Y0029693D02*
X0131201Y0029693D01*
X0130622Y0029094D02*
X0120299Y0029094D01*
X0119701Y0028496D02*
X0130374Y0028496D01*
X0130211Y0027897D02*
X0119600Y0027897D01*
X0119600Y0027299D02*
X0130211Y0027299D01*
X0130332Y0026700D02*
X0119600Y0026700D01*
X0119600Y0026102D02*
X0130580Y0026102D01*
X0131100Y0025503D02*
X0119254Y0025503D01*
X0118655Y0024905D02*
X0132093Y0024905D01*
X0133907Y0024905D02*
X0147163Y0024905D01*
X0149585Y0024905D02*
X0162404Y0024905D01*
X0162156Y0024306D02*
X0118057Y0024306D01*
X0117458Y0023708D02*
X0161908Y0023708D01*
X0161846Y0023109D02*
X0108100Y0023109D01*
X0108100Y0022511D02*
X0161846Y0022511D01*
X0162913Y0025503D02*
X0150400Y0025503D01*
X0150846Y0026102D02*
X0163105Y0026102D01*
X0162506Y0026700D02*
X0151094Y0026700D01*
X0151163Y0027299D02*
X0162235Y0027299D01*
X0158905Y0030890D02*
X0122095Y0030890D01*
X0122693Y0031488D02*
X0158307Y0031488D01*
X0158200Y0032087D02*
X0122800Y0032087D01*
X0122800Y0032686D02*
X0158200Y0032686D01*
X0158200Y0033284D02*
X0122800Y0033284D01*
X0122800Y0033883D02*
X0158200Y0033883D01*
X0158200Y0034481D02*
X0122800Y0034481D01*
X0122800Y0035080D02*
X0158200Y0035080D01*
X0158200Y0035678D02*
X0122800Y0035678D01*
X0122800Y0036277D02*
X0158200Y0036277D01*
X0158200Y0036875D02*
X0122800Y0036875D01*
X0122800Y0037474D02*
X0158200Y0037474D01*
X0158200Y0038072D02*
X0122800Y0038072D01*
X0122800Y0038671D02*
X0158200Y0038671D01*
X0158200Y0039269D02*
X0122800Y0039269D01*
X0122800Y0039868D02*
X0158200Y0039868D01*
X0158200Y0040466D02*
X0122800Y0040466D01*
X0122800Y0041065D02*
X0158200Y0041065D01*
X0158200Y0041663D02*
X0122800Y0041663D01*
X0122800Y0042262D02*
X0158200Y0042262D01*
X0158200Y0042860D02*
X0122800Y0042860D01*
X0123941Y0043459D02*
X0158200Y0043459D01*
X0158200Y0044057D02*
X0125386Y0044057D01*
X0126006Y0044656D02*
X0158200Y0044656D01*
X0158200Y0045254D02*
X0126588Y0045254D01*
X0126836Y0045853D02*
X0158200Y0045853D01*
X0158200Y0046451D02*
X0127084Y0046451D01*
X0127200Y0047050D02*
X0158200Y0047050D01*
X0158200Y0047648D02*
X0127200Y0047648D01*
X0127200Y0048247D02*
X0158200Y0048247D01*
X0158200Y0048845D02*
X0127000Y0048845D01*
X0126753Y0049444D02*
X0158200Y0049444D01*
X0158200Y0050042D02*
X0126404Y0050042D01*
X0125805Y0050641D02*
X0158200Y0050641D01*
X0158200Y0051239D02*
X0124902Y0051239D01*
X0123916Y0053448D02*
X0125422Y0054072D01*
X0126576Y0055226D01*
X0127200Y0056732D01*
X0127200Y0058364D01*
X0126576Y0059870D01*
X0125422Y0061024D01*
X0123916Y0061648D01*
X0117084Y0061648D01*
X0115578Y0061024D01*
X0114424Y0059870D01*
X0113800Y0058364D01*
X0113800Y0056732D01*
X0114424Y0055226D01*
X0115578Y0054072D01*
X0117084Y0053448D01*
X0123916Y0053448D01*
X0124363Y0053633D02*
X0158200Y0053633D01*
X0158200Y0053035D02*
X0057800Y0053035D01*
X0057800Y0053633D02*
X0073616Y0053633D01*
X0073802Y0053448D02*
X0077198Y0053448D01*
X0079600Y0055850D01*
X0079600Y0059246D01*
X0077198Y0061648D01*
X0073802Y0061648D01*
X0071400Y0059246D01*
X0071400Y0055850D01*
X0073802Y0053448D01*
X0073018Y0054232D02*
X0057800Y0054232D01*
X0057800Y0054830D02*
X0072419Y0054830D01*
X0071821Y0055429D02*
X0057800Y0055429D01*
X0057800Y0056027D02*
X0071400Y0056027D01*
X0071400Y0056626D02*
X0057800Y0056626D01*
X0057800Y0057224D02*
X0071400Y0057224D01*
X0071400Y0057823D02*
X0057800Y0057823D01*
X0057800Y0058421D02*
X0071400Y0058421D01*
X0071400Y0059020D02*
X0057800Y0059020D01*
X0057800Y0059619D02*
X0071772Y0059619D01*
X0072371Y0060217D02*
X0057800Y0060217D01*
X0057800Y0060816D02*
X0072969Y0060816D01*
X0073568Y0061414D02*
X0057800Y0061414D01*
X0057800Y0062005D02*
X0061021Y0068448D01*
X0062198Y0068448D01*
X0064600Y0070850D01*
X0064600Y0074246D01*
X0062198Y0076648D01*
X0058802Y0076648D01*
X0056400Y0074246D01*
X0056400Y0070850D01*
X0056853Y0070397D01*
X0053610Y0063910D01*
X0053200Y0063501D01*
X0053200Y0063091D01*
X0053017Y0062725D01*
X0053200Y0062175D01*
X0053200Y0033779D01*
X0042320Y0026526D01*
X0042198Y0026648D01*
X0038802Y0026648D01*
X0036400Y0024246D01*
X0036400Y0020850D01*
X0038802Y0018448D01*
X0042198Y0018448D01*
X0044600Y0020850D01*
X0044600Y0022517D01*
X0056196Y0030248D01*
X0056453Y0030248D01*
X0056965Y0030761D01*
X0057568Y0031163D01*
X0057619Y0031414D01*
X0057800Y0031595D01*
X0057800Y0032320D01*
X0057942Y0033031D01*
X0057800Y0033244D01*
X0057800Y0062005D01*
X0057804Y0062013D02*
X0158200Y0062013D01*
X0158200Y0062611D02*
X0058103Y0062611D01*
X0058402Y0063210D02*
X0158200Y0063210D01*
X0158200Y0063808D02*
X0124785Y0063808D01*
X0125422Y0064072D02*
X0126576Y0065226D01*
X0127200Y0066732D01*
X0127200Y0068364D01*
X0126576Y0069870D01*
X0125422Y0071024D01*
X0123916Y0071648D01*
X0117084Y0071648D01*
X0115578Y0071024D01*
X0114424Y0069870D01*
X0113800Y0068364D01*
X0113800Y0066732D01*
X0114424Y0065226D01*
X0115578Y0064072D01*
X0117084Y0063448D01*
X0123916Y0063448D01*
X0125422Y0064072D01*
X0125757Y0064407D02*
X0158200Y0064407D01*
X0158200Y0065005D02*
X0126355Y0065005D01*
X0126732Y0065604D02*
X0158200Y0065604D01*
X0158200Y0066202D02*
X0126980Y0066202D01*
X0127200Y0066801D02*
X0157995Y0066801D01*
X0157396Y0067399D02*
X0127200Y0067399D01*
X0127200Y0067998D02*
X0156798Y0067998D01*
X0156199Y0068596D02*
X0127104Y0068596D01*
X0126856Y0069195D02*
X0155601Y0069195D01*
X0155002Y0069793D02*
X0126608Y0069793D01*
X0126055Y0070392D02*
X0154404Y0070392D01*
X0153805Y0070990D02*
X0125456Y0070990D01*
X0124059Y0071589D02*
X0153207Y0071589D01*
X0152608Y0072187D02*
X0064600Y0072187D01*
X0064600Y0071589D02*
X0086941Y0071589D01*
X0087084Y0071648D02*
X0085578Y0071024D01*
X0084424Y0069870D01*
X0083800Y0068364D01*
X0083800Y0066732D01*
X0084424Y0065226D01*
X0085578Y0064072D01*
X0087084Y0063448D01*
X0093916Y0063448D01*
X0095422Y0064072D01*
X0096576Y0065226D01*
X0097200Y0066732D01*
X0097200Y0068364D01*
X0096576Y0069870D01*
X0095422Y0071024D01*
X0093916Y0071648D01*
X0087084Y0071648D01*
X0085544Y0070990D02*
X0064600Y0070990D01*
X0064142Y0070392D02*
X0084945Y0070392D01*
X0084392Y0069793D02*
X0063543Y0069793D01*
X0062945Y0069195D02*
X0084144Y0069195D01*
X0083896Y0068596D02*
X0062346Y0068596D01*
X0060796Y0067998D02*
X0083800Y0067998D01*
X0083800Y0067399D02*
X0060497Y0067399D01*
X0060198Y0066801D02*
X0083800Y0066801D01*
X0084020Y0066202D02*
X0059899Y0066202D01*
X0059599Y0065604D02*
X0084268Y0065604D01*
X0084645Y0065005D02*
X0059300Y0065005D01*
X0059001Y0064407D02*
X0085243Y0064407D01*
X0086215Y0063808D02*
X0058702Y0063808D01*
X0054456Y0065604D02*
X0052800Y0065604D01*
X0052800Y0066202D02*
X0054756Y0066202D01*
X0055055Y0066801D02*
X0052800Y0066801D01*
X0052800Y0067399D02*
X0055354Y0067399D01*
X0055653Y0067998D02*
X0052800Y0067998D01*
X0052800Y0068596D02*
X0055953Y0068596D01*
X0056252Y0069195D02*
X0052945Y0069195D01*
X0052800Y0069050D02*
X0054600Y0070850D01*
X0054600Y0074246D01*
X0052198Y0076648D01*
X0048802Y0076648D01*
X0046400Y0074246D01*
X0046400Y0070850D01*
X0048200Y0069050D01*
X0048200Y0066612D01*
X0047347Y0065759D01*
X0046000Y0064412D01*
X0046000Y0051301D01*
X0021347Y0026648D01*
X0018802Y0026648D01*
X0016400Y0024246D01*
X0016400Y0020850D01*
X0018802Y0018448D01*
X0022198Y0018448D01*
X0024600Y0020850D01*
X0024600Y0023395D01*
X0049253Y0048048D01*
X0050600Y0049395D01*
X0050600Y0062507D01*
X0052800Y0064707D01*
X0052800Y0069050D01*
X0053543Y0069793D02*
X0056551Y0069793D01*
X0056850Y0070392D02*
X0054142Y0070392D01*
X0054600Y0070990D02*
X0056400Y0070990D01*
X0056400Y0071589D02*
X0054600Y0071589D01*
X0054600Y0072187D02*
X0056400Y0072187D01*
X0056400Y0072786D02*
X0054600Y0072786D01*
X0054600Y0073384D02*
X0056400Y0073384D01*
X0056400Y0073983D02*
X0054600Y0073983D01*
X0054265Y0074581D02*
X0056735Y0074581D01*
X0057334Y0075180D02*
X0053666Y0075180D01*
X0053068Y0075778D02*
X0057932Y0075778D01*
X0058531Y0076377D02*
X0052469Y0076377D01*
X0048531Y0076377D02*
X0042469Y0076377D01*
X0042198Y0076648D02*
X0038802Y0076648D01*
X0036400Y0074246D01*
X0036400Y0070850D01*
X0038802Y0068448D01*
X0042198Y0068448D01*
X0044600Y0070850D01*
X0044600Y0074246D01*
X0042198Y0076648D01*
X0043068Y0075778D02*
X0047932Y0075778D01*
X0047334Y0075180D02*
X0043666Y0075180D01*
X0044265Y0074581D02*
X0046735Y0074581D01*
X0046400Y0073983D02*
X0044600Y0073983D01*
X0044600Y0073384D02*
X0046400Y0073384D01*
X0046400Y0072786D02*
X0044600Y0072786D01*
X0044600Y0072187D02*
X0046400Y0072187D01*
X0046400Y0071589D02*
X0044600Y0071589D01*
X0044600Y0070990D02*
X0046400Y0070990D01*
X0046858Y0070392D02*
X0044142Y0070392D01*
X0043543Y0069793D02*
X0047457Y0069793D01*
X0048055Y0069195D02*
X0042945Y0069195D01*
X0042346Y0068596D02*
X0048200Y0068596D01*
X0048200Y0067998D02*
X0032800Y0067998D01*
X0032800Y0068596D02*
X0038654Y0068596D01*
X0038055Y0069195D02*
X0032800Y0069195D01*
X0032800Y0069793D02*
X0037457Y0069793D01*
X0036858Y0070392D02*
X0032800Y0070392D01*
X0032800Y0070990D02*
X0036400Y0070990D01*
X0036400Y0071589D02*
X0032800Y0071589D01*
X0032800Y0072187D02*
X0036400Y0072187D01*
X0036400Y0072786D02*
X0032800Y0072786D01*
X0032800Y0073384D02*
X0036400Y0073384D01*
X0036400Y0073983D02*
X0032800Y0073983D01*
X0032800Y0074581D02*
X0036735Y0074581D01*
X0037334Y0075180D02*
X0032800Y0075180D01*
X0032800Y0075778D02*
X0037932Y0075778D01*
X0038531Y0076377D02*
X0032800Y0076377D01*
X0032800Y0076975D02*
X0083800Y0076975D01*
X0083800Y0076732D02*
X0084424Y0075226D01*
X0085578Y0074072D01*
X0087084Y0073448D01*
X0093916Y0073448D01*
X0095422Y0074072D01*
X0096576Y0075226D01*
X0097200Y0076732D01*
X0097200Y0078364D01*
X0096576Y0079870D01*
X0095422Y0081024D01*
X0093916Y0081648D01*
X0087084Y0081648D01*
X0085578Y0081024D01*
X0084424Y0079870D01*
X0083800Y0078364D01*
X0083800Y0076732D01*
X0083947Y0076377D02*
X0062469Y0076377D01*
X0063068Y0075778D02*
X0084195Y0075778D01*
X0084470Y0075180D02*
X0063666Y0075180D01*
X0064265Y0074581D02*
X0085068Y0074581D01*
X0085793Y0073983D02*
X0064600Y0073983D01*
X0064600Y0073384D02*
X0151411Y0073384D01*
X0152010Y0072786D02*
X0064600Y0072786D01*
X0071325Y0079369D02*
X0032800Y0079369D01*
X0032800Y0078771D02*
X0071923Y0078771D01*
X0072522Y0078172D02*
X0032800Y0078172D01*
X0032800Y0077574D02*
X0073920Y0077574D01*
X0070940Y0079968D02*
X0032800Y0079968D01*
X0032800Y0080566D02*
X0070692Y0080566D01*
X0070444Y0081165D02*
X0032800Y0081165D01*
X0032800Y0081763D02*
X0070300Y0081763D01*
X0070300Y0082362D02*
X0032800Y0082362D01*
X0032800Y0082960D02*
X0070300Y0082960D01*
X0070300Y0083559D02*
X0032800Y0083559D01*
X0032800Y0084157D02*
X0070538Y0084157D01*
X0070786Y0084756D02*
X0032800Y0084756D01*
X0032800Y0085355D02*
X0071034Y0085355D01*
X0071551Y0085953D02*
X0032800Y0085953D01*
X0032800Y0086552D02*
X0072150Y0086552D01*
X0073022Y0087150D02*
X0032800Y0087150D01*
X0032800Y0087749D02*
X0074091Y0087749D01*
X0072776Y0088347D02*
X0032800Y0088347D01*
X0032800Y0088946D02*
X0072031Y0088946D01*
X0071502Y0089544D02*
X0032800Y0089544D01*
X0032800Y0090143D02*
X0071114Y0090143D01*
X0070830Y0090741D02*
X0032800Y0090741D01*
X0032800Y0091340D02*
X0070635Y0091340D01*
X0070534Y0091938D02*
X0032858Y0091938D01*
X0032848Y0092537D02*
X0075200Y0092537D01*
X0075800Y0092537D02*
X0132259Y0092537D01*
X0131660Y0093135D02*
X0080469Y0093135D01*
X0080372Y0093734D02*
X0086395Y0093734D01*
X0085318Y0094332D02*
X0080178Y0094332D01*
X0079898Y0094931D02*
X0084719Y0094931D01*
X0084298Y0095529D02*
X0079514Y0095529D01*
X0078991Y0096128D02*
X0084051Y0096128D01*
X0083803Y0096726D02*
X0078256Y0096726D01*
X0077923Y0097923D02*
X0083800Y0097923D01*
X0083800Y0097325D02*
X0076979Y0097325D01*
X0078828Y0098522D02*
X0083866Y0098522D01*
X0084113Y0099120D02*
X0079426Y0099120D01*
X0079957Y0099719D02*
X0084361Y0099719D01*
X0084871Y0100317D02*
X0080204Y0100317D01*
X0074021Y0097325D02*
X0027481Y0097325D01*
X0026584Y0097923D02*
X0073077Y0097923D01*
X0072172Y0098522D02*
X0025686Y0098522D01*
X0024788Y0099120D02*
X0071574Y0099120D01*
X0071043Y0099719D02*
X0023890Y0099719D01*
X0022992Y0100317D02*
X0070796Y0100317D01*
X0070300Y0102113D02*
X0020299Y0102113D01*
X0019401Y0102711D02*
X0070300Y0102711D01*
X0070300Y0103310D02*
X0018504Y0103310D01*
X0017606Y0103908D02*
X0070435Y0103908D01*
X0070683Y0104507D02*
X0016794Y0104507D01*
X0015069Y0105105D02*
X0070931Y0105105D01*
X0071302Y0105704D02*
X0014698Y0105704D01*
X0014100Y0106302D02*
X0071900Y0106302D01*
X0072499Y0106901D02*
X0013501Y0106901D01*
X0012134Y0107499D02*
X0073865Y0107499D01*
X0072744Y0096726D02*
X0028379Y0096726D01*
X0029277Y0096128D02*
X0072009Y0096128D01*
X0071486Y0095529D02*
X0030175Y0095529D01*
X0031072Y0094931D02*
X0071102Y0094931D01*
X0070822Y0094332D02*
X0031970Y0094332D01*
X0032608Y0093734D02*
X0070628Y0093734D01*
X0070531Y0093135D02*
X0032800Y0093135D01*
X0028166Y0091340D02*
X0015628Y0091340D01*
X0015700Y0091938D02*
X0027268Y0091938D01*
X0026371Y0092537D02*
X0015700Y0092537D01*
X0015700Y0093135D02*
X0025473Y0093135D01*
X0024575Y0093734D02*
X0015637Y0093734D01*
X0015389Y0094332D02*
X0023677Y0094332D01*
X0022780Y0094931D02*
X0015142Y0094931D01*
X0014873Y0095529D02*
X0021882Y0095529D01*
X0020984Y0096128D02*
X0014274Y0096128D01*
X0013676Y0096726D02*
X0020086Y0096726D01*
X0019189Y0097325D02*
X0012556Y0097325D01*
X0012923Y0097923D02*
X0018291Y0097923D01*
X0017393Y0098522D02*
X0013828Y0098522D01*
X0014426Y0099120D02*
X0016495Y0099120D01*
X0015597Y0099719D02*
X0014957Y0099719D01*
X0015560Y0090741D02*
X0028200Y0090741D01*
X0028200Y0090143D02*
X0016158Y0090143D01*
X0016757Y0089544D02*
X0028200Y0089544D01*
X0028200Y0088946D02*
X0017355Y0088946D01*
X0017954Y0088347D02*
X0028200Y0088347D01*
X0028200Y0087749D02*
X0018552Y0087749D01*
X0019151Y0087150D02*
X0028200Y0087150D01*
X0028200Y0086552D02*
X0019749Y0086552D01*
X0020348Y0085953D02*
X0028200Y0085953D01*
X0028200Y0085355D02*
X0020946Y0085355D01*
X0021545Y0084756D02*
X0028200Y0084756D01*
X0028200Y0084157D02*
X0022143Y0084157D01*
X0022742Y0083559D02*
X0028200Y0083559D01*
X0028200Y0082960D02*
X0022800Y0082960D01*
X0022800Y0082362D02*
X0028200Y0082362D01*
X0028200Y0081763D02*
X0022800Y0081763D01*
X0022800Y0081165D02*
X0028200Y0081165D01*
X0028200Y0080566D02*
X0022800Y0080566D01*
X0022800Y0079968D02*
X0028200Y0079968D01*
X0028200Y0079369D02*
X0022800Y0079369D01*
X0022800Y0078771D02*
X0028200Y0078771D01*
X0028200Y0078172D02*
X0022800Y0078172D01*
X0022800Y0077574D02*
X0028200Y0077574D01*
X0028200Y0076975D02*
X0022800Y0076975D01*
X0022800Y0076377D02*
X0028200Y0076377D01*
X0028200Y0075778D02*
X0022800Y0075778D01*
X0022800Y0075180D02*
X0028200Y0075180D01*
X0028200Y0074581D02*
X0022800Y0074581D01*
X0022800Y0073983D02*
X0028200Y0073983D01*
X0028200Y0073384D02*
X0022800Y0073384D01*
X0022800Y0072786D02*
X0028200Y0072786D01*
X0028200Y0072187D02*
X0022800Y0072187D01*
X0022800Y0071589D02*
X0028200Y0071589D01*
X0028200Y0070990D02*
X0022800Y0070990D01*
X0022800Y0070392D02*
X0028200Y0070392D01*
X0028200Y0069793D02*
X0022800Y0069793D01*
X0022800Y0069195D02*
X0028200Y0069195D01*
X0028200Y0068596D02*
X0023085Y0068596D01*
X0023289Y0067998D02*
X0028200Y0067998D01*
X0028200Y0067399D02*
X0023289Y0067399D01*
X0023209Y0066801D02*
X0028200Y0066801D01*
X0028200Y0066202D02*
X0022961Y0066202D01*
X0022500Y0065604D02*
X0028200Y0065604D01*
X0028200Y0065005D02*
X0021649Y0065005D01*
X0019351Y0065005D02*
X0007000Y0065005D01*
X0007000Y0064407D02*
X0028200Y0064407D01*
X0028200Y0063808D02*
X0007000Y0063808D01*
X0007000Y0063210D02*
X0027346Y0063210D01*
X0026448Y0062611D02*
X0007000Y0062611D01*
X0007000Y0062013D02*
X0025550Y0062013D01*
X0024653Y0061414D02*
X0007000Y0061414D01*
X0007000Y0060816D02*
X0023755Y0060816D01*
X0022857Y0060217D02*
X0007000Y0060217D01*
X0007000Y0059619D02*
X0021959Y0059619D01*
X0021062Y0059020D02*
X0007000Y0059020D01*
X0007000Y0058421D02*
X0020164Y0058421D01*
X0019266Y0057823D02*
X0007000Y0057823D01*
X0007000Y0057224D02*
X0013202Y0057224D01*
X0012224Y0056626D02*
X0007000Y0056626D01*
X0007000Y0056027D02*
X0011626Y0056027D01*
X0011065Y0055429D02*
X0007000Y0055429D01*
X0007000Y0054830D02*
X0010817Y0054830D01*
X0010569Y0054232D02*
X0007000Y0054232D01*
X0007000Y0053633D02*
X0010321Y0053633D01*
X0010300Y0053035D02*
X0007000Y0053035D01*
X0007000Y0052436D02*
X0010300Y0052436D01*
X0010300Y0051838D02*
X0007000Y0051838D01*
X0007000Y0051239D02*
X0010414Y0051239D01*
X0010662Y0050641D02*
X0007000Y0050641D01*
X0007000Y0050042D02*
X0010909Y0050042D01*
X0011250Y0049444D02*
X0007000Y0049444D01*
X0007000Y0048845D02*
X0011849Y0048845D01*
X0012447Y0048247D02*
X0007000Y0048247D01*
X0007000Y0047648D02*
X0013741Y0047648D01*
X0017259Y0047648D02*
X0034473Y0047648D01*
X0034329Y0047671D02*
X0035106Y0047548D01*
X0035200Y0047548D01*
X0035200Y0052248D01*
X0035800Y0052248D01*
X0035800Y0047548D01*
X0035894Y0047548D01*
X0036671Y0047671D01*
X0037419Y0047914D01*
X0038121Y0048272D01*
X0038757Y0048734D01*
X0039314Y0049291D01*
X0039776Y0049927D01*
X0040134Y0050629D01*
X0040377Y0051377D01*
X0040500Y0052155D01*
X0040500Y0052248D01*
X0035800Y0052248D01*
X0035800Y0052848D01*
X0040500Y0052848D01*
X0040500Y0052942D01*
X0040377Y0053719D01*
X0040134Y0054467D01*
X0039776Y0055169D01*
X0039314Y0055805D01*
X0038757Y0056362D01*
X0038121Y0056824D01*
X0037419Y0057182D01*
X0036671Y0057425D01*
X0035894Y0057548D01*
X0035800Y0057548D01*
X0035800Y0052848D01*
X0035200Y0052848D01*
X0035200Y0052248D01*
X0030500Y0052248D01*
X0030500Y0052155D01*
X0030623Y0051377D01*
X0030866Y0050629D01*
X0031224Y0049927D01*
X0031686Y0049291D01*
X0032243Y0048734D01*
X0032879Y0048272D01*
X0033581Y0047914D01*
X0034329Y0047671D01*
X0035200Y0047648D02*
X0035800Y0047648D01*
X0035800Y0048247D02*
X0035200Y0048247D01*
X0035200Y0048845D02*
X0035800Y0048845D01*
X0035800Y0049444D02*
X0035200Y0049444D01*
X0035200Y0050042D02*
X0035800Y0050042D01*
X0035800Y0050641D02*
X0035200Y0050641D01*
X0035200Y0051239D02*
X0035800Y0051239D01*
X0035800Y0051838D02*
X0035200Y0051838D01*
X0035200Y0052436D02*
X0020700Y0052436D01*
X0020700Y0051838D02*
X0030550Y0051838D01*
X0030668Y0051239D02*
X0020586Y0051239D01*
X0020338Y0050641D02*
X0030862Y0050641D01*
X0031165Y0050042D02*
X0020091Y0050042D01*
X0019750Y0049444D02*
X0031575Y0049444D01*
X0032132Y0048845D02*
X0019151Y0048845D01*
X0018553Y0048247D02*
X0032928Y0048247D01*
X0036527Y0047648D02*
X0042348Y0047648D01*
X0042946Y0048247D02*
X0038072Y0048247D01*
X0038868Y0048845D02*
X0043545Y0048845D01*
X0044143Y0049444D02*
X0039425Y0049444D01*
X0039835Y0050042D02*
X0044742Y0050042D01*
X0045340Y0050641D02*
X0040138Y0050641D01*
X0040332Y0051239D02*
X0045939Y0051239D01*
X0046000Y0051838D02*
X0040450Y0051838D01*
X0040485Y0053035D02*
X0046000Y0053035D01*
X0046000Y0053633D02*
X0040390Y0053633D01*
X0040210Y0054232D02*
X0046000Y0054232D01*
X0046000Y0054830D02*
X0039949Y0054830D01*
X0039587Y0055429D02*
X0046000Y0055429D01*
X0046000Y0056027D02*
X0039092Y0056027D01*
X0038394Y0056626D02*
X0046000Y0056626D01*
X0046000Y0057224D02*
X0037288Y0057224D01*
X0035800Y0057224D02*
X0035200Y0057224D01*
X0035200Y0057548D02*
X0035106Y0057548D01*
X0034329Y0057425D01*
X0033581Y0057182D01*
X0032879Y0056824D01*
X0032243Y0056362D01*
X0031686Y0055805D01*
X0031224Y0055169D01*
X0030866Y0054467D01*
X0030623Y0053719D01*
X0030500Y0052942D01*
X0030500Y0052848D01*
X0035200Y0052848D01*
X0035200Y0057548D01*
X0035200Y0056626D02*
X0035800Y0056626D01*
X0035800Y0056027D02*
X0035200Y0056027D01*
X0035200Y0055429D02*
X0035800Y0055429D01*
X0035800Y0054830D02*
X0035200Y0054830D01*
X0035200Y0054232D02*
X0035800Y0054232D01*
X0035800Y0053633D02*
X0035200Y0053633D01*
X0035200Y0053035D02*
X0035800Y0053035D01*
X0035800Y0052436D02*
X0046000Y0052436D01*
X0050600Y0052436D02*
X0053200Y0052436D01*
X0053200Y0051838D02*
X0050600Y0051838D01*
X0050600Y0051239D02*
X0053200Y0051239D01*
X0053200Y0050641D02*
X0050600Y0050641D01*
X0050600Y0050042D02*
X0053200Y0050042D01*
X0053200Y0049444D02*
X0050600Y0049444D01*
X0050050Y0048845D02*
X0053200Y0048845D01*
X0053200Y0048247D02*
X0049451Y0048247D01*
X0048853Y0047648D02*
X0053200Y0047648D01*
X0053200Y0047050D02*
X0048254Y0047050D01*
X0047656Y0046451D02*
X0053200Y0046451D01*
X0053200Y0045853D02*
X0047057Y0045853D01*
X0046459Y0045254D02*
X0053200Y0045254D01*
X0053200Y0044656D02*
X0045860Y0044656D01*
X0045262Y0044057D02*
X0053200Y0044057D01*
X0053200Y0043459D02*
X0044663Y0043459D01*
X0044065Y0042860D02*
X0053200Y0042860D01*
X0053200Y0042262D02*
X0043466Y0042262D01*
X0042868Y0041663D02*
X0053200Y0041663D01*
X0053200Y0041065D02*
X0042269Y0041065D01*
X0041671Y0040466D02*
X0053200Y0040466D01*
X0053200Y0039868D02*
X0041072Y0039868D01*
X0040474Y0039269D02*
X0053200Y0039269D01*
X0053200Y0038671D02*
X0039875Y0038671D01*
X0039277Y0038072D02*
X0053200Y0038072D01*
X0053200Y0037474D02*
X0038678Y0037474D01*
X0038080Y0036875D02*
X0053200Y0036875D01*
X0053200Y0036277D02*
X0037481Y0036277D01*
X0036883Y0035678D02*
X0053200Y0035678D01*
X0053200Y0035080D02*
X0036284Y0035080D01*
X0035686Y0034481D02*
X0053200Y0034481D01*
X0053200Y0033883D02*
X0035087Y0033883D01*
X0034489Y0033284D02*
X0052458Y0033284D01*
X0051560Y0032686D02*
X0033890Y0032686D01*
X0033292Y0032087D02*
X0050662Y0032087D01*
X0049764Y0031488D02*
X0032693Y0031488D01*
X0032095Y0030890D02*
X0048867Y0030890D01*
X0047969Y0030291D02*
X0031496Y0030291D01*
X0030898Y0029693D02*
X0047071Y0029693D01*
X0046173Y0029094D02*
X0030299Y0029094D01*
X0029701Y0028496D02*
X0045275Y0028496D01*
X0044378Y0027897D02*
X0029102Y0027897D01*
X0028504Y0027299D02*
X0043480Y0027299D01*
X0042582Y0026700D02*
X0027905Y0026700D01*
X0027307Y0026102D02*
X0038256Y0026102D01*
X0037657Y0025503D02*
X0026708Y0025503D01*
X0026110Y0024905D02*
X0037059Y0024905D01*
X0036460Y0024306D02*
X0025511Y0024306D01*
X0024912Y0023708D02*
X0036400Y0023708D01*
X0036400Y0023109D02*
X0024600Y0023109D01*
X0024600Y0022511D02*
X0036400Y0022511D01*
X0036400Y0021912D02*
X0024600Y0021912D01*
X0024600Y0021314D02*
X0036400Y0021314D01*
X0036534Y0020715D02*
X0024466Y0020715D01*
X0023867Y0020117D02*
X0037133Y0020117D01*
X0037731Y0019518D02*
X0023268Y0019518D01*
X0022670Y0018920D02*
X0038330Y0018920D01*
X0038679Y0016526D02*
X0022321Y0016526D01*
X0022919Y0015927D02*
X0038081Y0015927D01*
X0037482Y0015329D02*
X0023518Y0015329D01*
X0024116Y0014730D02*
X0036884Y0014730D01*
X0036400Y0014132D02*
X0024600Y0014132D01*
X0024600Y0013533D02*
X0036400Y0013533D01*
X0036400Y0012935D02*
X0024600Y0012935D01*
X0024600Y0012336D02*
X0036400Y0012336D01*
X0036400Y0011738D02*
X0024600Y0011738D01*
X0024600Y0011139D02*
X0036400Y0011139D01*
X0036709Y0010541D02*
X0024291Y0010541D01*
X0023692Y0009942D02*
X0037308Y0009942D01*
X0037906Y0009344D02*
X0023094Y0009344D01*
X0017906Y0009344D02*
X0007000Y0009344D01*
X0007000Y0009942D02*
X0017308Y0009942D01*
X0016709Y0010541D02*
X0007000Y0010541D01*
X0007000Y0011139D02*
X0016400Y0011139D01*
X0016400Y0011738D02*
X0007000Y0011738D01*
X0007000Y0012336D02*
X0016400Y0012336D01*
X0016400Y0012935D02*
X0007000Y0012935D01*
X0007000Y0013533D02*
X0016400Y0013533D01*
X0016400Y0014132D02*
X0007000Y0014132D01*
X0007000Y0014730D02*
X0016884Y0014730D01*
X0017482Y0015329D02*
X0007000Y0015329D01*
X0007000Y0015927D02*
X0018081Y0015927D01*
X0018679Y0016526D02*
X0007000Y0016526D01*
X0007000Y0017124D02*
X0060400Y0017124D01*
X0060400Y0016526D02*
X0042321Y0016526D01*
X0042919Y0015927D02*
X0060526Y0015927D01*
X0060774Y0015329D02*
X0043518Y0015329D01*
X0044116Y0014730D02*
X0061022Y0014730D01*
X0061618Y0014132D02*
X0044600Y0014132D01*
X0042670Y0018920D02*
X0060837Y0018920D01*
X0060590Y0018321D02*
X0007000Y0018321D01*
X0007000Y0017723D02*
X0060400Y0017723D01*
X0061172Y0019518D02*
X0043268Y0019518D01*
X0043867Y0020117D02*
X0061770Y0020117D01*
X0062640Y0020715D02*
X0044466Y0020715D01*
X0044600Y0022511D02*
X0099900Y0022511D01*
X0099900Y0023109D02*
X0045488Y0023109D01*
X0046386Y0023708D02*
X0078825Y0023708D01*
X0078885Y0023648D02*
X0076600Y0025933D01*
X0076600Y0027248D01*
X0080200Y0027248D01*
X0080800Y0027248D01*
X0080800Y0023648D01*
X0082115Y0023648D01*
X0084400Y0025933D01*
X0084400Y0027248D01*
X0080800Y0027248D01*
X0080800Y0027848D01*
X0084400Y0027848D01*
X0084400Y0029163D01*
X0082115Y0031448D01*
X0080800Y0031448D01*
X0080800Y0027848D01*
X0080200Y0027848D01*
X0080200Y0027248D01*
X0080200Y0023648D01*
X0078885Y0023648D01*
X0078226Y0024306D02*
X0047284Y0024306D01*
X0048182Y0024905D02*
X0077628Y0024905D01*
X0077029Y0025503D02*
X0049079Y0025503D01*
X0049977Y0026102D02*
X0076600Y0026102D01*
X0076600Y0026700D02*
X0050875Y0026700D01*
X0051773Y0027299D02*
X0080200Y0027299D01*
X0080200Y0027848D02*
X0076600Y0027848D01*
X0076600Y0029163D01*
X0078885Y0031448D01*
X0080200Y0031448D01*
X0080200Y0027848D01*
X0080200Y0027897D02*
X0080800Y0027897D01*
X0080800Y0027299D02*
X0096200Y0027299D01*
X0096200Y0027248D02*
X0092600Y0027248D01*
X0092600Y0025933D01*
X0094885Y0023648D01*
X0096200Y0023648D01*
X0096200Y0027248D01*
X0096800Y0027248D01*
X0096800Y0023648D01*
X0098115Y0023648D01*
X0100400Y0025933D01*
X0100400Y0027248D01*
X0096800Y0027248D01*
X0096800Y0027848D01*
X0100400Y0027848D01*
X0100400Y0029163D01*
X0098115Y0031448D01*
X0096800Y0031448D01*
X0096800Y0027848D01*
X0096200Y0027848D01*
X0096200Y0027248D01*
X0096200Y0026700D02*
X0096800Y0026700D01*
X0096800Y0026102D02*
X0096200Y0026102D01*
X0096200Y0025503D02*
X0096800Y0025503D01*
X0096800Y0024905D02*
X0096200Y0024905D01*
X0096200Y0024306D02*
X0096800Y0024306D01*
X0096800Y0023708D02*
X0096200Y0023708D01*
X0094825Y0023708D02*
X0082175Y0023708D01*
X0082774Y0024306D02*
X0094226Y0024306D01*
X0093628Y0024905D02*
X0083372Y0024905D01*
X0083971Y0025503D02*
X0093029Y0025503D01*
X0092600Y0026102D02*
X0084400Y0026102D01*
X0084400Y0026700D02*
X0092600Y0026700D01*
X0092600Y0027848D02*
X0096200Y0027848D01*
X0096200Y0031448D01*
X0094885Y0031448D01*
X0092600Y0029163D01*
X0092600Y0027848D01*
X0092600Y0027897D02*
X0084400Y0027897D01*
X0084400Y0028496D02*
X0092600Y0028496D01*
X0092600Y0029094D02*
X0084400Y0029094D01*
X0083870Y0029693D02*
X0093130Y0029693D01*
X0093728Y0030291D02*
X0083272Y0030291D01*
X0082673Y0030890D02*
X0094327Y0030890D01*
X0096200Y0030890D02*
X0096800Y0030890D01*
X0096800Y0030291D02*
X0096200Y0030291D01*
X0096200Y0029693D02*
X0096800Y0029693D01*
X0096800Y0029094D02*
X0096200Y0029094D01*
X0096200Y0028496D02*
X0096800Y0028496D01*
X0096800Y0027897D02*
X0096200Y0027897D01*
X0096800Y0027299D02*
X0111400Y0027299D01*
X0111400Y0027897D02*
X0100400Y0027897D01*
X0100400Y0028496D02*
X0111400Y0028496D01*
X0111400Y0029094D02*
X0100400Y0029094D01*
X0099870Y0029693D02*
X0111847Y0029693D01*
X0112445Y0030291D02*
X0099272Y0030291D01*
X0098673Y0030890D02*
X0113044Y0030890D01*
X0113642Y0031488D02*
X0057693Y0031488D01*
X0057800Y0032087D02*
X0116786Y0032087D01*
X0117385Y0032686D02*
X0057873Y0032686D01*
X0057800Y0033284D02*
X0062749Y0033284D01*
X0062885Y0033148D02*
X0060600Y0035433D01*
X0060600Y0036748D01*
X0064200Y0036748D01*
X0064800Y0036748D01*
X0064800Y0033148D01*
X0066115Y0033148D01*
X0068400Y0035433D01*
X0068400Y0036748D01*
X0064800Y0036748D01*
X0064800Y0037348D01*
X0068400Y0037348D01*
X0068400Y0038663D01*
X0066115Y0040948D01*
X0064800Y0040948D01*
X0064800Y0037348D01*
X0064200Y0037348D01*
X0064200Y0036748D01*
X0064200Y0033148D01*
X0062885Y0033148D01*
X0062150Y0033883D02*
X0057800Y0033883D01*
X0057800Y0034481D02*
X0061552Y0034481D01*
X0060953Y0035080D02*
X0057800Y0035080D01*
X0057800Y0035678D02*
X0060600Y0035678D01*
X0060600Y0036277D02*
X0057800Y0036277D01*
X0057800Y0036875D02*
X0064200Y0036875D01*
X0064200Y0037348D02*
X0060600Y0037348D01*
X0060600Y0038663D01*
X0062885Y0040948D01*
X0064200Y0040948D01*
X0064200Y0037348D01*
X0064200Y0037474D02*
X0064800Y0037474D01*
X0064800Y0038072D02*
X0064200Y0038072D01*
X0064200Y0038671D02*
X0064800Y0038671D01*
X0064800Y0039269D02*
X0064200Y0039269D01*
X0064200Y0039868D02*
X0064800Y0039868D01*
X0064800Y0040466D02*
X0064200Y0040466D01*
X0062403Y0040466D02*
X0057800Y0040466D01*
X0057800Y0039868D02*
X0061804Y0039868D01*
X0061206Y0039269D02*
X0057800Y0039269D01*
X0057800Y0038671D02*
X0060607Y0038671D01*
X0060600Y0038072D02*
X0057800Y0038072D01*
X0057800Y0037474D02*
X0060600Y0037474D01*
X0057800Y0041065D02*
X0118200Y0041065D01*
X0118200Y0041663D02*
X0057800Y0041663D01*
X0057800Y0042262D02*
X0118200Y0042262D01*
X0118200Y0042860D02*
X0057800Y0042860D01*
X0057800Y0043459D02*
X0087059Y0043459D01*
X0087084Y0043448D02*
X0093916Y0043448D01*
X0095422Y0044072D01*
X0096576Y0045226D01*
X0097200Y0046732D01*
X0097200Y0048364D01*
X0096576Y0049870D01*
X0095422Y0051024D01*
X0093916Y0051648D01*
X0087084Y0051648D01*
X0085578Y0051024D01*
X0084424Y0049870D01*
X0083800Y0048364D01*
X0083800Y0046732D01*
X0084424Y0045226D01*
X0085578Y0044072D01*
X0087084Y0043448D01*
X0085614Y0044057D02*
X0077525Y0044057D01*
X0077115Y0043648D02*
X0079400Y0045933D01*
X0079400Y0047248D01*
X0075800Y0047248D01*
X0075800Y0043648D01*
X0077115Y0043648D01*
X0075800Y0044057D02*
X0075200Y0044057D01*
X0075200Y0043648D02*
X0075200Y0047248D01*
X0075800Y0047248D01*
X0075800Y0047848D01*
X0079400Y0047848D01*
X0079400Y0049163D01*
X0077115Y0051448D01*
X0075800Y0051448D01*
X0075800Y0047848D01*
X0075200Y0047848D01*
X0075200Y0047248D01*
X0071600Y0047248D01*
X0071600Y0045933D01*
X0073885Y0043648D01*
X0075200Y0043648D01*
X0075200Y0044656D02*
X0075800Y0044656D01*
X0075800Y0045254D02*
X0075200Y0045254D01*
X0075200Y0045853D02*
X0075800Y0045853D01*
X0075800Y0046451D02*
X0075200Y0046451D01*
X0075200Y0047050D02*
X0075800Y0047050D01*
X0075800Y0047648D02*
X0083800Y0047648D01*
X0083800Y0047050D02*
X0079400Y0047050D01*
X0079400Y0046451D02*
X0083916Y0046451D01*
X0084164Y0045853D02*
X0079320Y0045853D01*
X0078722Y0045254D02*
X0084412Y0045254D01*
X0084994Y0044656D02*
X0078123Y0044656D01*
X0079400Y0048247D02*
X0083800Y0048247D01*
X0084000Y0048845D02*
X0079400Y0048845D01*
X0079120Y0049444D02*
X0084247Y0049444D01*
X0084596Y0050042D02*
X0078521Y0050042D01*
X0077923Y0050641D02*
X0085195Y0050641D01*
X0086098Y0051239D02*
X0077324Y0051239D01*
X0075800Y0051239D02*
X0075200Y0051239D01*
X0075200Y0051448D02*
X0073885Y0051448D01*
X0071600Y0049163D01*
X0071600Y0047848D01*
X0075200Y0047848D01*
X0075200Y0051448D01*
X0075200Y0050641D02*
X0075800Y0050641D01*
X0075800Y0050042D02*
X0075200Y0050042D01*
X0075200Y0049444D02*
X0075800Y0049444D01*
X0075800Y0048845D02*
X0075200Y0048845D01*
X0075200Y0048247D02*
X0075800Y0048247D01*
X0075200Y0047648D02*
X0057800Y0047648D01*
X0057800Y0047050D02*
X0071600Y0047050D01*
X0071600Y0046451D02*
X0057800Y0046451D01*
X0057800Y0045853D02*
X0071680Y0045853D01*
X0072278Y0045254D02*
X0057800Y0045254D01*
X0057800Y0044656D02*
X0072877Y0044656D01*
X0073475Y0044057D02*
X0057800Y0044057D01*
X0057800Y0048247D02*
X0071600Y0048247D01*
X0071600Y0048845D02*
X0057800Y0048845D01*
X0057800Y0049444D02*
X0071880Y0049444D01*
X0072479Y0050042D02*
X0057800Y0050042D01*
X0057800Y0050641D02*
X0073077Y0050641D01*
X0073676Y0051239D02*
X0057800Y0051239D01*
X0057800Y0051838D02*
X0158200Y0051838D01*
X0158200Y0052436D02*
X0057800Y0052436D01*
X0053200Y0053035D02*
X0050600Y0053035D01*
X0050600Y0053633D02*
X0053200Y0053633D01*
X0053200Y0054232D02*
X0050600Y0054232D01*
X0050600Y0054830D02*
X0053200Y0054830D01*
X0053200Y0055429D02*
X0050600Y0055429D01*
X0050600Y0056027D02*
X0053200Y0056027D01*
X0053200Y0056626D02*
X0050600Y0056626D01*
X0050600Y0057224D02*
X0053200Y0057224D01*
X0053200Y0057823D02*
X0050600Y0057823D01*
X0050600Y0058421D02*
X0053200Y0058421D01*
X0053200Y0059020D02*
X0050600Y0059020D01*
X0050600Y0059619D02*
X0053200Y0059619D01*
X0053200Y0060217D02*
X0050600Y0060217D01*
X0050600Y0060816D02*
X0053200Y0060816D01*
X0053200Y0061414D02*
X0050600Y0061414D01*
X0050600Y0062013D02*
X0053200Y0062013D01*
X0053055Y0062611D02*
X0050704Y0062611D01*
X0051303Y0063210D02*
X0053200Y0063210D01*
X0053507Y0063808D02*
X0051901Y0063808D01*
X0052500Y0064407D02*
X0053858Y0064407D01*
X0054157Y0065005D02*
X0052800Y0065005D01*
X0048200Y0066801D02*
X0032800Y0066801D01*
X0032800Y0067399D02*
X0048200Y0067399D01*
X0047790Y0066202D02*
X0032800Y0066202D01*
X0032800Y0065604D02*
X0047192Y0065604D01*
X0046593Y0065005D02*
X0032800Y0065005D01*
X0032800Y0064407D02*
X0046000Y0064407D01*
X0046000Y0063808D02*
X0032800Y0063808D01*
X0032823Y0063210D02*
X0046000Y0063210D01*
X0046000Y0062611D02*
X0032858Y0062611D01*
X0032800Y0062013D02*
X0046000Y0062013D01*
X0046000Y0060217D02*
X0031150Y0060217D01*
X0030252Y0059619D02*
X0046000Y0059619D01*
X0046000Y0059020D02*
X0029354Y0059020D01*
X0028457Y0058421D02*
X0046000Y0058421D01*
X0046000Y0057823D02*
X0027559Y0057823D01*
X0026661Y0057224D02*
X0033712Y0057224D01*
X0032606Y0056626D02*
X0025763Y0056626D01*
X0024865Y0056027D02*
X0031908Y0056027D01*
X0031413Y0055429D02*
X0023968Y0055429D01*
X0023070Y0054830D02*
X0031051Y0054830D01*
X0030790Y0054232D02*
X0022172Y0054232D01*
X0021274Y0053633D02*
X0030610Y0053633D01*
X0030515Y0053035D02*
X0020700Y0053035D01*
X0018368Y0057224D02*
X0017798Y0057224D01*
X0018500Y0065604D02*
X0007000Y0065604D01*
X0007000Y0066202D02*
X0018039Y0066202D01*
X0017791Y0066801D02*
X0007000Y0066801D01*
X0007000Y0067399D02*
X0017711Y0067399D01*
X0017711Y0067998D02*
X0012583Y0067998D01*
X0013567Y0068596D02*
X0017915Y0068596D01*
X0018200Y0069195D02*
X0014218Y0069195D01*
X0014679Y0069793D02*
X0018200Y0069793D01*
X0018200Y0070392D02*
X0015013Y0070392D01*
X0015251Y0070990D02*
X0018200Y0070990D01*
X0018200Y0071589D02*
X0015410Y0071589D01*
X0015500Y0072187D02*
X0018200Y0072187D01*
X0018200Y0072786D02*
X0010800Y0072786D01*
X0010800Y0072187D02*
X0010200Y0072187D01*
X0010200Y0071589D02*
X0010800Y0071589D01*
X0010800Y0070990D02*
X0010200Y0070990D01*
X0010200Y0070392D02*
X0010800Y0070392D01*
X0010800Y0069793D02*
X0010200Y0069793D01*
X0010200Y0069195D02*
X0010800Y0069195D01*
X0010800Y0068596D02*
X0010200Y0068596D01*
X0010200Y0067998D02*
X0010800Y0067998D01*
X0008417Y0067998D02*
X0007000Y0067998D01*
X0007000Y0068596D02*
X0007433Y0068596D01*
X0014333Y0075778D02*
X0018200Y0075778D01*
X0018200Y0075180D02*
X0014768Y0075180D01*
X0015076Y0074581D02*
X0018200Y0074581D01*
X0018200Y0073983D02*
X0015291Y0073983D01*
X0015430Y0073384D02*
X0018200Y0073384D01*
X0018200Y0076377D02*
X0013737Y0076377D01*
X0012824Y0076975D02*
X0018200Y0076975D01*
X0018200Y0077574D02*
X0012080Y0077574D01*
X0013478Y0078172D02*
X0018200Y0078172D01*
X0018200Y0078771D02*
X0014077Y0078771D01*
X0014675Y0079369D02*
X0018200Y0079369D01*
X0018200Y0079968D02*
X0015060Y0079968D01*
X0015308Y0080566D02*
X0018200Y0080566D01*
X0018200Y0081165D02*
X0015556Y0081165D01*
X0015700Y0081763D02*
X0018032Y0081763D01*
X0017433Y0082362D02*
X0015700Y0082362D01*
X0015700Y0082960D02*
X0016835Y0082960D01*
X0016236Y0083559D02*
X0015700Y0083559D01*
X0015638Y0084157D02*
X0015462Y0084157D01*
X0042447Y0108696D02*
X0048836Y0108696D01*
X0048238Y0109295D02*
X0043045Y0109295D01*
X0043644Y0109893D02*
X0047639Y0109893D01*
X0047041Y0110492D02*
X0044242Y0110492D01*
X0044600Y0111090D02*
X0046600Y0111090D01*
X0046600Y0111689D02*
X0044600Y0111689D01*
X0050200Y0111090D02*
X0050800Y0111090D01*
X0050800Y0110492D02*
X0050200Y0110492D01*
X0050200Y0109893D02*
X0050800Y0109893D01*
X0050800Y0109295D02*
X0050200Y0109295D01*
X0050200Y0108696D02*
X0050800Y0108696D01*
X0052164Y0108696D02*
X0058836Y0108696D01*
X0058238Y0109295D02*
X0052762Y0109295D01*
X0053361Y0109893D02*
X0057639Y0109893D01*
X0057041Y0110492D02*
X0053959Y0110492D01*
X0054400Y0111090D02*
X0056600Y0111090D01*
X0056600Y0111689D02*
X0054400Y0111689D01*
X0054400Y0112886D02*
X0056600Y0112886D01*
X0056600Y0112848D02*
X0060200Y0112848D01*
X0060200Y0116448D01*
X0058885Y0116448D01*
X0056600Y0114163D01*
X0056600Y0112848D01*
X0056600Y0113485D02*
X0054400Y0113485D01*
X0054400Y0114083D02*
X0056600Y0114083D01*
X0057118Y0114682D02*
X0053882Y0114682D01*
X0053283Y0115280D02*
X0057717Y0115280D01*
X0058315Y0115879D02*
X0052685Y0115879D01*
X0050800Y0115879D02*
X0050200Y0115879D01*
X0050200Y0115280D02*
X0050800Y0115280D01*
X0050800Y0114682D02*
X0050200Y0114682D01*
X0050200Y0114083D02*
X0050800Y0114083D01*
X0050800Y0113485D02*
X0050200Y0113485D01*
X0050200Y0112886D02*
X0050800Y0112886D01*
X0060200Y0112886D02*
X0060800Y0112886D01*
X0060800Y0113485D02*
X0060200Y0113485D01*
X0060200Y0114083D02*
X0060800Y0114083D01*
X0060800Y0114682D02*
X0060200Y0114682D01*
X0060200Y0115280D02*
X0060800Y0115280D01*
X0060800Y0115879D02*
X0060200Y0115879D01*
X0060200Y0111090D02*
X0060800Y0111090D01*
X0060800Y0110492D02*
X0060200Y0110492D01*
X0060200Y0109893D02*
X0060800Y0109893D01*
X0060800Y0109295D02*
X0060200Y0109295D01*
X0060200Y0108696D02*
X0060800Y0108696D01*
X0080170Y0090741D02*
X0085295Y0090741D01*
X0085578Y0091024D02*
X0084424Y0089870D01*
X0083800Y0088364D01*
X0083800Y0086732D01*
X0084424Y0085226D01*
X0085578Y0084072D01*
X0087084Y0083448D01*
X0093916Y0083448D01*
X0095422Y0084072D01*
X0096576Y0085226D01*
X0097200Y0086732D01*
X0097200Y0088364D01*
X0096576Y0089870D01*
X0095422Y0091024D01*
X0093916Y0091648D01*
X0087084Y0091648D01*
X0085578Y0091024D01*
X0086340Y0091340D02*
X0080365Y0091340D01*
X0080466Y0091938D02*
X0132857Y0091938D01*
X0133456Y0091340D02*
X0124029Y0091340D01*
X0124238Y0091298D02*
X0123484Y0091448D01*
X0120800Y0091448D01*
X0120800Y0087848D01*
X0127000Y0087848D01*
X0127000Y0087932D01*
X0126850Y0088686D01*
X0126556Y0089395D01*
X0126129Y0090034D01*
X0125586Y0090577D01*
X0124947Y0091004D01*
X0124238Y0091298D01*
X0125341Y0090741D02*
X0134054Y0090741D01*
X0134653Y0090143D02*
X0126021Y0090143D01*
X0126457Y0089544D02*
X0135251Y0089544D01*
X0135850Y0088946D02*
X0126742Y0088946D01*
X0126917Y0088347D02*
X0136448Y0088347D01*
X0137047Y0087749D02*
X0120800Y0087749D01*
X0120800Y0087848D02*
X0120800Y0087248D01*
X0120800Y0083648D01*
X0123484Y0083648D01*
X0124238Y0083798D01*
X0124947Y0084092D01*
X0125586Y0084519D01*
X0126129Y0085062D01*
X0126556Y0085701D01*
X0126850Y0086410D01*
X0127000Y0087164D01*
X0127000Y0087248D01*
X0120800Y0087248D01*
X0120200Y0087248D01*
X0120200Y0083648D01*
X0117516Y0083648D01*
X0116762Y0083798D01*
X0116053Y0084092D01*
X0115414Y0084519D01*
X0114871Y0085062D01*
X0114444Y0085701D01*
X0114150Y0086410D01*
X0114000Y0087164D01*
X0114000Y0087248D01*
X0120200Y0087248D01*
X0120200Y0087848D01*
X0114000Y0087848D01*
X0114000Y0087932D01*
X0114150Y0088686D01*
X0114444Y0089395D01*
X0114871Y0090034D01*
X0115414Y0090577D01*
X0116053Y0091004D01*
X0116762Y0091298D01*
X0117516Y0091448D01*
X0120200Y0091448D01*
X0120200Y0087848D01*
X0120800Y0087848D01*
X0120800Y0088347D02*
X0120200Y0088347D01*
X0120200Y0087749D02*
X0097200Y0087749D01*
X0097200Y0088347D02*
X0114083Y0088347D01*
X0114258Y0088946D02*
X0096959Y0088946D01*
X0096711Y0089544D02*
X0114543Y0089544D01*
X0114979Y0090143D02*
X0096304Y0090143D01*
X0095705Y0090741D02*
X0115659Y0090741D01*
X0116971Y0091340D02*
X0094660Y0091340D01*
X0094605Y0093734D02*
X0116395Y0093734D01*
X0115318Y0094332D02*
X0095682Y0094332D01*
X0096281Y0094931D02*
X0114719Y0094931D01*
X0114298Y0095529D02*
X0096702Y0095529D01*
X0096949Y0096128D02*
X0114051Y0096128D01*
X0113803Y0096726D02*
X0097197Y0096726D01*
X0097200Y0097325D02*
X0113800Y0097325D01*
X0113800Y0097923D02*
X0097200Y0097923D01*
X0097134Y0098522D02*
X0113866Y0098522D01*
X0114113Y0099120D02*
X0096887Y0099120D01*
X0096639Y0099719D02*
X0114361Y0099719D01*
X0114871Y0100317D02*
X0096129Y0100317D01*
X0095530Y0100916D02*
X0115470Y0100916D01*
X0116762Y0101514D02*
X0094238Y0101514D01*
X0094504Y0103908D02*
X0115973Y0103908D01*
X0115143Y0104507D02*
X0095568Y0104507D01*
X0096158Y0105105D02*
X0114544Y0105105D01*
X0114226Y0105704D02*
X0096557Y0105704D01*
X0096805Y0106302D02*
X0113978Y0106302D01*
X0113800Y0106901D02*
X0096948Y0106901D01*
X0090800Y0106302D02*
X0090200Y0106302D01*
X0090200Y0105704D02*
X0090800Y0105704D01*
X0090800Y0105105D02*
X0090200Y0105105D01*
X0090200Y0104507D02*
X0090800Y0104507D01*
X0090800Y0103908D02*
X0090200Y0103908D01*
X0090200Y0108098D02*
X0090800Y0108098D01*
X0090800Y0108696D02*
X0090200Y0108696D01*
X0090200Y0109295D02*
X0090800Y0109295D01*
X0090800Y0109893D02*
X0090200Y0109893D01*
X0090200Y0110492D02*
X0090800Y0110492D01*
X0090800Y0111090D02*
X0090200Y0111090D01*
X0086575Y0123659D02*
X0015668Y0123659D01*
X0015700Y0123061D02*
X0141400Y0123061D01*
X0141400Y0122462D02*
X0015700Y0122462D01*
X0015420Y0124258D02*
X0085392Y0124258D01*
X0084794Y0124856D02*
X0015172Y0124856D01*
X0014924Y0125455D02*
X0084329Y0125455D01*
X0084081Y0126053D02*
X0014349Y0126053D01*
X0013750Y0126652D02*
X0083833Y0126652D01*
X0083800Y0127250D02*
X0012736Y0127250D01*
X0012743Y0127849D02*
X0083800Y0127849D01*
X0083835Y0128447D02*
X0013753Y0128447D01*
X0014352Y0129046D02*
X0084083Y0129046D01*
X0084331Y0129644D02*
X0014926Y0129644D01*
X0015174Y0130243D02*
X0084797Y0130243D01*
X0085395Y0130841D02*
X0015422Y0130841D01*
X0053140Y0163161D02*
X0200850Y0163161D01*
X0200850Y0163759D02*
X0137227Y0163759D01*
X0137115Y0163648D02*
X0139400Y0165933D01*
X0139400Y0167248D01*
X0135800Y0167248D01*
X0135800Y0163648D01*
X0137115Y0163648D01*
X0137825Y0164358D02*
X0200850Y0164358D01*
X0200850Y0164957D02*
X0138424Y0164957D01*
X0139022Y0165555D02*
X0200850Y0165555D01*
X0200850Y0166154D02*
X0139400Y0166154D01*
X0139400Y0166752D02*
X0200850Y0166752D01*
X0200850Y0167351D02*
X0135800Y0167351D01*
X0135800Y0167248D02*
X0135800Y0167848D01*
X0139400Y0167848D01*
X0139400Y0169163D01*
X0137115Y0171448D01*
X0135800Y0171448D01*
X0135800Y0167848D01*
X0135200Y0167848D01*
X0135200Y0167248D01*
X0135800Y0167248D01*
X0135800Y0166752D02*
X0135200Y0166752D01*
X0135200Y0167248D02*
X0135200Y0163648D01*
X0133885Y0163648D01*
X0131600Y0165933D01*
X0131600Y0167248D01*
X0135200Y0167248D01*
X0135200Y0167351D02*
X0120800Y0167351D01*
X0120800Y0167248D02*
X0120800Y0167848D01*
X0127000Y0167848D01*
X0127000Y0167932D01*
X0126850Y0168686D01*
X0126556Y0169395D01*
X0126129Y0170034D01*
X0125586Y0170577D01*
X0124947Y0171004D01*
X0124238Y0171298D01*
X0123484Y0171448D01*
X0120800Y0171448D01*
X0120800Y0167848D01*
X0120200Y0167848D01*
X0120200Y0167248D01*
X0120800Y0167248D01*
X0120800Y0163648D01*
X0123484Y0163648D01*
X0124238Y0163798D01*
X0124947Y0164092D01*
X0125586Y0164519D01*
X0126129Y0165062D01*
X0126556Y0165701D01*
X0126850Y0166410D01*
X0127000Y0167164D01*
X0127000Y0167248D01*
X0120800Y0167248D01*
X0120800Y0166752D02*
X0120200Y0166752D01*
X0120200Y0167248D02*
X0120200Y0163648D01*
X0117516Y0163648D01*
X0116762Y0163798D01*
X0116053Y0164092D01*
X0115414Y0164519D01*
X0114871Y0165062D01*
X0114444Y0165701D01*
X0114150Y0166410D01*
X0114000Y0167164D01*
X0114000Y0167248D01*
X0120200Y0167248D01*
X0120200Y0167351D02*
X0097200Y0167351D01*
X0097200Y0167949D02*
X0114003Y0167949D01*
X0114000Y0167932D02*
X0114000Y0167848D01*
X0120200Y0167848D01*
X0120200Y0171448D01*
X0117516Y0171448D01*
X0116762Y0171298D01*
X0116053Y0171004D01*
X0115414Y0170577D01*
X0114871Y0170034D01*
X0114444Y0169395D01*
X0114150Y0168686D01*
X0114000Y0167932D01*
X0114122Y0168548D02*
X0097124Y0168548D01*
X0096876Y0169146D02*
X0114341Y0169146D01*
X0114677Y0169745D02*
X0096628Y0169745D01*
X0096103Y0170343D02*
X0115180Y0170343D01*
X0115959Y0170942D02*
X0095505Y0170942D01*
X0094176Y0171540D02*
X0200850Y0171540D01*
X0200850Y0170942D02*
X0137622Y0170942D01*
X0138220Y0170343D02*
X0200850Y0170343D01*
X0200850Y0169745D02*
X0138819Y0169745D01*
X0139400Y0169146D02*
X0200850Y0169146D01*
X0200850Y0168548D02*
X0139400Y0168548D01*
X0139400Y0167949D02*
X0200850Y0167949D01*
X0200850Y0172139D02*
X0044162Y0172139D01*
X0043564Y0172737D02*
X0200850Y0172737D01*
X0200850Y0173336D02*
X0042965Y0173336D01*
X0053738Y0162562D02*
X0200850Y0162562D01*
X0200850Y0161964D02*
X0054337Y0161964D01*
X0063289Y0152986D02*
X0200850Y0152986D01*
X0200850Y0152388D02*
X0063289Y0152388D01*
X0062488Y0150592D02*
X0085146Y0150592D01*
X0084547Y0149994D02*
X0061621Y0149994D01*
X0072414Y0180518D02*
X0085072Y0180518D01*
X0085801Y0181116D02*
X0072926Y0181116D01*
X0073174Y0181715D02*
X0200850Y0181715D01*
X0200850Y0182313D02*
X0073289Y0182313D01*
X0073289Y0182912D02*
X0200850Y0182912D01*
X0200850Y0183510D02*
X0073120Y0183510D01*
X0072872Y0184109D02*
X0200850Y0184109D01*
X0200850Y0184707D02*
X0072800Y0184707D01*
X0072800Y0185306D02*
X0200850Y0185306D01*
X0200850Y0185904D02*
X0072800Y0185904D01*
X0072800Y0186503D02*
X0200850Y0186503D01*
X0200850Y0187101D02*
X0072800Y0187101D01*
X0072800Y0187700D02*
X0200850Y0187700D01*
X0200850Y0188298D02*
X0072800Y0188298D01*
X0072800Y0188897D02*
X0200850Y0188897D01*
X0200850Y0189495D02*
X0072800Y0189495D01*
X0072800Y0190094D02*
X0200850Y0190094D01*
X0200850Y0190692D02*
X0072800Y0190692D01*
X0072800Y0191291D02*
X0200850Y0191291D01*
X0200850Y0191890D02*
X0072800Y0191890D01*
X0072800Y0192488D02*
X0200850Y0192488D01*
X0200850Y0181116D02*
X0137730Y0181116D01*
X0137198Y0181648D02*
X0133802Y0181648D01*
X0131400Y0179246D01*
X0131400Y0175850D01*
X0133802Y0173448D01*
X0137198Y0173448D01*
X0139600Y0175850D01*
X0139600Y0179246D01*
X0137198Y0181648D01*
X0138328Y0180518D02*
X0200850Y0180518D01*
X0200850Y0179919D02*
X0138927Y0179919D01*
X0139526Y0179321D02*
X0200850Y0179321D01*
X0200850Y0178722D02*
X0139600Y0178722D01*
X0139600Y0178124D02*
X0200850Y0178124D01*
X0200850Y0177525D02*
X0139600Y0177525D01*
X0139600Y0176927D02*
X0200850Y0176927D01*
X0200850Y0176328D02*
X0139600Y0176328D01*
X0139480Y0175730D02*
X0200850Y0175730D01*
X0200850Y0175131D02*
X0138881Y0175131D01*
X0138283Y0174533D02*
X0200850Y0174533D01*
X0200850Y0173934D02*
X0137684Y0173934D01*
X0135200Y0171448D02*
X0133885Y0171448D01*
X0131600Y0169163D01*
X0131600Y0167848D01*
X0135200Y0167848D01*
X0135200Y0171448D01*
X0135200Y0170942D02*
X0135800Y0170942D01*
X0135800Y0170343D02*
X0135200Y0170343D01*
X0135200Y0169745D02*
X0135800Y0169745D01*
X0135800Y0169146D02*
X0135200Y0169146D01*
X0135200Y0168548D02*
X0135800Y0168548D01*
X0135800Y0167949D02*
X0135200Y0167949D01*
X0135200Y0166154D02*
X0135800Y0166154D01*
X0135800Y0165555D02*
X0135200Y0165555D01*
X0135200Y0164957D02*
X0135800Y0164957D01*
X0135800Y0164358D02*
X0135200Y0164358D01*
X0135200Y0163759D02*
X0135800Y0163759D01*
X0133773Y0163759D02*
X0124044Y0163759D01*
X0125346Y0164358D02*
X0133175Y0164358D01*
X0132576Y0164957D02*
X0126024Y0164957D01*
X0126459Y0165555D02*
X0131978Y0165555D01*
X0131600Y0166154D02*
X0126744Y0166154D01*
X0126918Y0166752D02*
X0131600Y0166752D01*
X0131600Y0167949D02*
X0126997Y0167949D01*
X0126878Y0168548D02*
X0131600Y0168548D01*
X0131600Y0169146D02*
X0126659Y0169146D01*
X0126323Y0169745D02*
X0132181Y0169745D01*
X0132780Y0170343D02*
X0125820Y0170343D01*
X0125041Y0170942D02*
X0133378Y0170942D01*
X0133316Y0173934D02*
X0125089Y0173934D01*
X0125422Y0174072D02*
X0126576Y0175226D01*
X0127200Y0176732D01*
X0127200Y0178364D01*
X0126576Y0179870D01*
X0125422Y0181024D01*
X0123916Y0181648D01*
X0117084Y0181648D01*
X0115578Y0181024D01*
X0114424Y0179870D01*
X0113800Y0178364D01*
X0113800Y0176732D01*
X0114424Y0175226D01*
X0115578Y0174072D01*
X0117084Y0173448D01*
X0123916Y0173448D01*
X0125422Y0174072D01*
X0125883Y0174533D02*
X0132717Y0174533D01*
X0132119Y0175131D02*
X0126481Y0175131D01*
X0126785Y0175730D02*
X0131520Y0175730D01*
X0131400Y0176328D02*
X0127033Y0176328D01*
X0127200Y0176927D02*
X0131400Y0176927D01*
X0131400Y0177525D02*
X0127200Y0177525D01*
X0127200Y0178124D02*
X0131400Y0178124D01*
X0131400Y0178722D02*
X0127051Y0178722D01*
X0126804Y0179321D02*
X0131474Y0179321D01*
X0132073Y0179919D02*
X0126527Y0179919D01*
X0125928Y0180518D02*
X0132672Y0180518D01*
X0133270Y0181116D02*
X0125199Y0181116D01*
X0115801Y0181116D02*
X0095199Y0181116D01*
X0095928Y0180518D02*
X0115072Y0180518D01*
X0114473Y0179919D02*
X0096527Y0179919D01*
X0096804Y0179321D02*
X0114196Y0179321D01*
X0113949Y0178722D02*
X0097051Y0178722D01*
X0097200Y0178124D02*
X0113800Y0178124D01*
X0113800Y0177525D02*
X0097200Y0177525D01*
X0097200Y0176927D02*
X0113800Y0176927D01*
X0113967Y0176328D02*
X0097033Y0176328D01*
X0096785Y0175730D02*
X0114215Y0175730D01*
X0114519Y0175131D02*
X0096481Y0175131D01*
X0095883Y0174533D02*
X0115117Y0174533D01*
X0115911Y0173934D02*
X0095089Y0173934D01*
X0097200Y0166752D02*
X0114082Y0166752D01*
X0114256Y0166154D02*
X0096960Y0166154D01*
X0096712Y0165555D02*
X0114541Y0165555D01*
X0114976Y0164957D02*
X0096307Y0164957D01*
X0095708Y0164358D02*
X0115654Y0164358D01*
X0116956Y0163759D02*
X0094667Y0163759D01*
X0094598Y0161365D02*
X0116402Y0161365D01*
X0117084Y0161648D02*
X0115578Y0161024D01*
X0114424Y0159870D01*
X0113800Y0158364D01*
X0113800Y0156732D01*
X0114424Y0155226D01*
X0115578Y0154072D01*
X0117084Y0153448D01*
X0123916Y0153448D01*
X0125422Y0154072D01*
X0126576Y0155226D01*
X0127200Y0156732D01*
X0127200Y0158364D01*
X0126576Y0159870D01*
X0125422Y0161024D01*
X0123916Y0161648D01*
X0117084Y0161648D01*
X0115321Y0160767D02*
X0095679Y0160767D01*
X0096278Y0160168D02*
X0114722Y0160168D01*
X0114300Y0159570D02*
X0096700Y0159570D01*
X0096948Y0158971D02*
X0114052Y0158971D01*
X0113804Y0158373D02*
X0097196Y0158373D01*
X0097200Y0157774D02*
X0113800Y0157774D01*
X0113800Y0157176D02*
X0097200Y0157176D01*
X0097136Y0156577D02*
X0113864Y0156577D01*
X0114112Y0155979D02*
X0096888Y0155979D01*
X0096640Y0155380D02*
X0114360Y0155380D01*
X0114868Y0154782D02*
X0096132Y0154782D01*
X0095534Y0154183D02*
X0115466Y0154183D01*
X0116754Y0153585D02*
X0094246Y0153585D01*
X0095019Y0151191D02*
X0115981Y0151191D01*
X0115146Y0150592D02*
X0095854Y0150592D01*
X0096453Y0149994D02*
X0114547Y0149994D01*
X0114227Y0149395D02*
X0096773Y0149395D01*
X0097021Y0148797D02*
X0113979Y0148797D01*
X0113800Y0148198D02*
X0097200Y0148198D01*
X0097200Y0147600D02*
X0113800Y0147600D01*
X0113800Y0147001D02*
X0097200Y0147001D01*
X0097063Y0146403D02*
X0113937Y0146403D01*
X0114185Y0145804D02*
X0096815Y0145804D01*
X0096556Y0145206D02*
X0114444Y0145206D01*
X0115043Y0144607D02*
X0095957Y0144607D01*
X0095269Y0144009D02*
X0115731Y0144009D01*
X0124246Y0153585D02*
X0200850Y0153585D01*
X0200850Y0154183D02*
X0125534Y0154183D01*
X0126132Y0154782D02*
X0200850Y0154782D01*
X0200850Y0155380D02*
X0126640Y0155380D01*
X0126888Y0155979D02*
X0200850Y0155979D01*
X0200850Y0156577D02*
X0127136Y0156577D01*
X0127200Y0157176D02*
X0200850Y0157176D01*
X0200850Y0157774D02*
X0127200Y0157774D01*
X0127196Y0158373D02*
X0200850Y0158373D01*
X0200850Y0158971D02*
X0126948Y0158971D01*
X0126700Y0159570D02*
X0200850Y0159570D01*
X0200850Y0160168D02*
X0126278Y0160168D01*
X0125679Y0160767D02*
X0200850Y0160767D01*
X0200850Y0161365D02*
X0124598Y0161365D01*
X0120800Y0163759D02*
X0120200Y0163759D01*
X0120200Y0164358D02*
X0120800Y0164358D01*
X0120800Y0164957D02*
X0120200Y0164957D01*
X0120200Y0165555D02*
X0120800Y0165555D01*
X0120800Y0166154D02*
X0120200Y0166154D01*
X0120200Y0167949D02*
X0120800Y0167949D01*
X0120800Y0168548D02*
X0120200Y0168548D01*
X0120200Y0169146D02*
X0120800Y0169146D01*
X0120800Y0169745D02*
X0120200Y0169745D01*
X0120200Y0170343D02*
X0120800Y0170343D01*
X0120800Y0170942D02*
X0120200Y0170942D01*
X0093021Y0200867D02*
X0057979Y0200867D01*
X0057381Y0201466D02*
X0093619Y0201466D01*
X0068200Y0191291D02*
X0050349Y0191291D01*
X0050154Y0190692D02*
X0068200Y0190692D01*
X0068200Y0190094D02*
X0049861Y0190094D01*
X0049463Y0189495D02*
X0068200Y0189495D01*
X0068200Y0188897D02*
X0048920Y0188897D01*
X0048157Y0188298D02*
X0068200Y0188298D01*
X0068200Y0187700D02*
X0046759Y0187700D01*
X0045800Y0187700D02*
X0045200Y0187700D01*
X0045200Y0188298D02*
X0045800Y0188298D01*
X0045800Y0188897D02*
X0045200Y0188897D01*
X0045200Y0189495D02*
X0045800Y0189495D01*
X0045800Y0190094D02*
X0045200Y0190094D01*
X0045200Y0190692D02*
X0045800Y0190692D01*
X0045800Y0191291D02*
X0045200Y0191291D01*
X0045200Y0191890D02*
X0045800Y0191890D01*
X0050382Y0193685D02*
X0053565Y0193685D01*
X0052966Y0194284D02*
X0050193Y0194284D01*
X0049922Y0194882D02*
X0052368Y0194882D01*
X0051769Y0195481D02*
X0049550Y0195481D01*
X0049040Y0196079D02*
X0051400Y0196079D01*
X0051400Y0196678D02*
X0048323Y0196678D01*
X0043871Y0197276D02*
X0027674Y0197276D01*
X0028724Y0196678D02*
X0042677Y0196678D01*
X0041960Y0196079D02*
X0029323Y0196079D01*
X0029914Y0195481D02*
X0041450Y0195481D01*
X0041078Y0194882D02*
X0030162Y0194882D01*
X0030410Y0194284D02*
X0040807Y0194284D01*
X0040618Y0193685D02*
X0030657Y0193685D01*
X0030700Y0193087D02*
X0040523Y0193087D01*
X0023326Y0197276D02*
X0012129Y0197276D01*
X0010800Y0197276D02*
X0010200Y0197276D01*
X0010200Y0196678D02*
X0010800Y0196678D01*
X0010800Y0196079D02*
X0010200Y0196079D01*
X0010200Y0195481D02*
X0010800Y0195481D01*
X0010800Y0194882D02*
X0010200Y0194882D01*
X0010200Y0194284D02*
X0010800Y0194284D01*
X0010800Y0193685D02*
X0010200Y0193685D01*
X0010200Y0193087D02*
X0010800Y0193087D01*
X0010800Y0192488D02*
X0020300Y0192488D01*
X0020300Y0191890D02*
X0015458Y0191890D01*
X0015349Y0191291D02*
X0020392Y0191291D01*
X0020640Y0190692D02*
X0015154Y0190692D01*
X0014861Y0190094D02*
X0020888Y0190094D01*
X0021199Y0189495D02*
X0014463Y0189495D01*
X0013920Y0188897D02*
X0021797Y0188897D01*
X0022396Y0188298D02*
X0013157Y0188298D01*
X0015477Y0193087D02*
X0020300Y0193087D01*
X0020343Y0193685D02*
X0015382Y0193685D01*
X0015193Y0194284D02*
X0020590Y0194284D01*
X0020838Y0194882D02*
X0014922Y0194882D01*
X0014550Y0195481D02*
X0021086Y0195481D01*
X0021677Y0196079D02*
X0014040Y0196079D01*
X0013323Y0196678D02*
X0022276Y0196678D01*
X0008871Y0197276D02*
X0007000Y0197276D01*
X0007000Y0196678D02*
X0007677Y0196678D01*
X0079886Y0090143D02*
X0084696Y0090143D01*
X0084289Y0089544D02*
X0079498Y0089544D01*
X0078969Y0088946D02*
X0084041Y0088946D01*
X0083800Y0088347D02*
X0078224Y0088347D01*
X0077978Y0087150D02*
X0083800Y0087150D01*
X0083800Y0087749D02*
X0076909Y0087749D01*
X0078850Y0086552D02*
X0083875Y0086552D01*
X0084123Y0085953D02*
X0079449Y0085953D01*
X0079966Y0085355D02*
X0084371Y0085355D01*
X0084894Y0084756D02*
X0080214Y0084756D01*
X0080462Y0084157D02*
X0085492Y0084157D01*
X0086817Y0083559D02*
X0080700Y0083559D01*
X0080700Y0082960D02*
X0141835Y0082960D01*
X0142433Y0082362D02*
X0080700Y0082362D01*
X0080700Y0081763D02*
X0143032Y0081763D01*
X0143630Y0081165D02*
X0125082Y0081165D01*
X0125422Y0081024D02*
X0123916Y0081648D01*
X0117084Y0081648D01*
X0115578Y0081024D01*
X0114424Y0079870D01*
X0113800Y0078364D01*
X0113800Y0076732D01*
X0114424Y0075226D01*
X0115578Y0074072D01*
X0117084Y0073448D01*
X0123916Y0073448D01*
X0125422Y0074072D01*
X0126576Y0075226D01*
X0127200Y0076732D01*
X0127200Y0078364D01*
X0126576Y0079870D01*
X0125422Y0081024D01*
X0125880Y0080566D02*
X0144229Y0080566D01*
X0144827Y0079968D02*
X0126478Y0079968D01*
X0126783Y0079369D02*
X0145426Y0079369D01*
X0146024Y0078771D02*
X0127031Y0078771D01*
X0127200Y0078172D02*
X0146623Y0078172D01*
X0147221Y0077574D02*
X0127200Y0077574D01*
X0127200Y0076975D02*
X0147820Y0076975D01*
X0148419Y0076377D02*
X0127053Y0076377D01*
X0126805Y0075778D02*
X0149017Y0075778D01*
X0149616Y0075180D02*
X0126530Y0075180D01*
X0125932Y0074581D02*
X0150214Y0074581D01*
X0150813Y0073983D02*
X0125207Y0073983D01*
X0116941Y0071589D02*
X0094059Y0071589D01*
X0095456Y0070990D02*
X0115544Y0070990D01*
X0114945Y0070392D02*
X0096055Y0070392D01*
X0096608Y0069793D02*
X0114392Y0069793D01*
X0114144Y0069195D02*
X0096856Y0069195D01*
X0097104Y0068596D02*
X0113896Y0068596D01*
X0113800Y0067998D02*
X0097200Y0067998D01*
X0097200Y0067399D02*
X0113800Y0067399D01*
X0113800Y0066801D02*
X0097200Y0066801D01*
X0096980Y0066202D02*
X0114020Y0066202D01*
X0114268Y0065604D02*
X0096732Y0065604D01*
X0096355Y0065005D02*
X0114645Y0065005D01*
X0115243Y0064407D02*
X0095757Y0064407D01*
X0094785Y0063808D02*
X0116215Y0063808D01*
X0116520Y0061414D02*
X0094480Y0061414D01*
X0093916Y0061648D02*
X0095422Y0061024D01*
X0096576Y0059870D01*
X0097200Y0058364D01*
X0097200Y0056732D01*
X0096576Y0055226D01*
X0095422Y0054072D01*
X0093916Y0053448D01*
X0087084Y0053448D01*
X0085578Y0054072D01*
X0084424Y0055226D01*
X0083800Y0056732D01*
X0083800Y0058364D01*
X0084424Y0059870D01*
X0085578Y0061024D01*
X0087084Y0061648D01*
X0093916Y0061648D01*
X0095631Y0060816D02*
X0115369Y0060816D01*
X0114771Y0060217D02*
X0096229Y0060217D01*
X0096680Y0059619D02*
X0114320Y0059619D01*
X0114072Y0059020D02*
X0096928Y0059020D01*
X0097176Y0058421D02*
X0113824Y0058421D01*
X0113800Y0057823D02*
X0097200Y0057823D01*
X0097200Y0057224D02*
X0113800Y0057224D01*
X0113844Y0056626D02*
X0097156Y0056626D01*
X0096908Y0056027D02*
X0114092Y0056027D01*
X0114340Y0055429D02*
X0096660Y0055429D01*
X0096181Y0054830D02*
X0114819Y0054830D01*
X0115418Y0054232D02*
X0095582Y0054232D01*
X0094363Y0053633D02*
X0116637Y0053633D01*
X0116098Y0051239D02*
X0094902Y0051239D01*
X0095805Y0050641D02*
X0115195Y0050641D01*
X0114596Y0050042D02*
X0096404Y0050042D01*
X0096753Y0049444D02*
X0114247Y0049444D01*
X0114000Y0048845D02*
X0097000Y0048845D01*
X0097200Y0048247D02*
X0113800Y0048247D01*
X0113800Y0047648D02*
X0097200Y0047648D01*
X0097200Y0047050D02*
X0113800Y0047050D01*
X0113916Y0046451D02*
X0097084Y0046451D01*
X0096836Y0045853D02*
X0114164Y0045853D01*
X0114412Y0045254D02*
X0096588Y0045254D01*
X0096006Y0044656D02*
X0114994Y0044656D01*
X0115614Y0044057D02*
X0095386Y0044057D01*
X0093941Y0043459D02*
X0117059Y0043459D01*
X0118200Y0040466D02*
X0066597Y0040466D01*
X0067196Y0039868D02*
X0118200Y0039868D01*
X0118200Y0039269D02*
X0067794Y0039269D01*
X0068393Y0038671D02*
X0118200Y0038671D01*
X0118200Y0038072D02*
X0068400Y0038072D01*
X0068400Y0037474D02*
X0118200Y0037474D01*
X0118200Y0036875D02*
X0064800Y0036875D01*
X0064800Y0036277D02*
X0064200Y0036277D01*
X0064200Y0035678D02*
X0064800Y0035678D01*
X0064800Y0035080D02*
X0064200Y0035080D01*
X0064200Y0034481D02*
X0064800Y0034481D01*
X0064800Y0033883D02*
X0064200Y0033883D01*
X0064200Y0033284D02*
X0064800Y0033284D01*
X0066251Y0033284D02*
X0117983Y0033284D01*
X0118200Y0033883D02*
X0066850Y0033883D01*
X0067448Y0034481D02*
X0118200Y0034481D01*
X0118200Y0035080D02*
X0068047Y0035080D01*
X0068400Y0035678D02*
X0118200Y0035678D01*
X0118200Y0036277D02*
X0068400Y0036277D01*
X0076600Y0029094D02*
X0054466Y0029094D01*
X0053568Y0028496D02*
X0076600Y0028496D01*
X0076600Y0027897D02*
X0052670Y0027897D01*
X0055364Y0029693D02*
X0077130Y0029693D01*
X0077728Y0030291D02*
X0056496Y0030291D01*
X0057159Y0030890D02*
X0078327Y0030890D01*
X0080200Y0030890D02*
X0080800Y0030890D01*
X0080800Y0030291D02*
X0080200Y0030291D01*
X0080200Y0029693D02*
X0080800Y0029693D01*
X0080800Y0029094D02*
X0080200Y0029094D01*
X0080200Y0028496D02*
X0080800Y0028496D01*
X0080800Y0026700D02*
X0080200Y0026700D01*
X0080200Y0026102D02*
X0080800Y0026102D01*
X0080800Y0025503D02*
X0080200Y0025503D01*
X0080200Y0024905D02*
X0080800Y0024905D01*
X0080800Y0024306D02*
X0080200Y0024306D01*
X0080200Y0023708D02*
X0080800Y0023708D01*
X0082532Y0021314D02*
X0094467Y0021314D01*
X0093869Y0020715D02*
X0083131Y0020715D01*
X0083730Y0020117D02*
X0093270Y0020117D01*
X0092672Y0019518D02*
X0084328Y0019518D01*
X0084600Y0018920D02*
X0092400Y0018920D01*
X0092400Y0018321D02*
X0084600Y0018321D01*
X0084600Y0017723D02*
X0092400Y0017723D01*
X0092400Y0017124D02*
X0084600Y0017124D01*
X0084600Y0016526D02*
X0092400Y0016526D01*
X0092400Y0015927D02*
X0084600Y0015927D01*
X0084079Y0015329D02*
X0092921Y0015329D01*
X0093520Y0014730D02*
X0083480Y0014730D01*
X0082882Y0014132D02*
X0094118Y0014132D01*
X0094717Y0013533D02*
X0082283Y0013533D01*
X0098175Y0023708D02*
X0099900Y0023708D01*
X0099960Y0024306D02*
X0098774Y0024306D01*
X0099372Y0024905D02*
X0100559Y0024905D01*
X0099971Y0025503D02*
X0101157Y0025503D01*
X0101756Y0026102D02*
X0100400Y0026102D01*
X0100400Y0026700D02*
X0111400Y0026700D01*
X0111400Y0026102D02*
X0106244Y0026102D01*
X0106843Y0025503D02*
X0111746Y0025503D01*
X0112345Y0024905D02*
X0107441Y0024905D01*
X0108040Y0024306D02*
X0112943Y0024306D01*
X0113542Y0023708D02*
X0108100Y0023708D01*
X0108100Y0021912D02*
X0123612Y0021912D01*
X0122198Y0021314D02*
X0117250Y0021314D01*
X0117848Y0020715D02*
X0121600Y0020715D01*
X0121001Y0020117D02*
X0118447Y0020117D01*
X0119045Y0019518D02*
X0120731Y0019518D01*
X0120483Y0018920D02*
X0119400Y0018920D01*
X0119400Y0018321D02*
X0120283Y0018321D01*
X0120283Y0017723D02*
X0115800Y0017723D01*
X0115800Y0018321D02*
X0115200Y0018321D01*
X0115200Y0018920D02*
X0115800Y0018920D01*
X0115800Y0019518D02*
X0115200Y0019518D01*
X0115200Y0020117D02*
X0115800Y0020117D01*
X0115800Y0020715D02*
X0115200Y0020715D01*
X0115200Y0021314D02*
X0115800Y0021314D01*
X0113750Y0021314D02*
X0108100Y0021314D01*
X0107966Y0020715D02*
X0113152Y0020715D01*
X0112553Y0020117D02*
X0107367Y0020117D01*
X0106768Y0019518D02*
X0111955Y0019518D01*
X0111600Y0018920D02*
X0106170Y0018920D01*
X0117599Y0014132D02*
X0121849Y0014132D01*
X0121250Y0014730D02*
X0118198Y0014730D01*
X0118796Y0015329D02*
X0120835Y0015329D01*
X0120587Y0015927D02*
X0119395Y0015927D01*
X0119400Y0016526D02*
X0120339Y0016526D01*
X0120283Y0017124D02*
X0119400Y0017124D01*
X0133581Y0013533D02*
X0139545Y0013533D01*
X0138154Y0014132D02*
X0134972Y0014132D01*
X0135571Y0014730D02*
X0137555Y0014730D01*
X0137009Y0015329D02*
X0136117Y0015329D01*
X0136365Y0015927D02*
X0136761Y0015927D01*
X0136658Y0018920D02*
X0136468Y0018920D01*
X0136220Y0019518D02*
X0136906Y0019518D01*
X0137306Y0020117D02*
X0135820Y0020117D01*
X0135221Y0020715D02*
X0137905Y0020715D01*
X0138943Y0021314D02*
X0134183Y0021314D01*
X0142057Y0021314D02*
X0146817Y0021314D01*
X0145779Y0020715D02*
X0143095Y0020715D01*
X0143694Y0020117D02*
X0145180Y0020117D01*
X0144780Y0019518D02*
X0144094Y0019518D01*
X0144342Y0018920D02*
X0144532Y0018920D01*
X0144635Y0015927D02*
X0144239Y0015927D01*
X0143991Y0015329D02*
X0144883Y0015329D01*
X0145429Y0014730D02*
X0143445Y0014730D01*
X0142846Y0014132D02*
X0146028Y0014132D01*
X0147419Y0013533D02*
X0141455Y0013533D01*
X0149329Y0013533D02*
X0154264Y0013533D01*
X0153345Y0014132D02*
X0150720Y0014132D01*
X0151319Y0014730D02*
X0152746Y0014730D01*
X0152331Y0015329D02*
X0151865Y0015329D01*
X0151968Y0019518D02*
X0152227Y0019518D01*
X0152497Y0020117D02*
X0151568Y0020117D01*
X0150969Y0020715D02*
X0153096Y0020715D01*
X0153694Y0021314D02*
X0149931Y0021314D01*
X0162800Y0050641D02*
X0172320Y0050641D01*
X0172320Y0051239D02*
X0162800Y0051239D01*
X0162800Y0051838D02*
X0172320Y0051838D01*
X0172320Y0052436D02*
X0162800Y0052436D01*
X0162800Y0053035D02*
X0172320Y0053035D01*
X0172320Y0053633D02*
X0162800Y0053633D01*
X0162800Y0054232D02*
X0172320Y0054232D01*
X0172320Y0054830D02*
X0162800Y0054830D01*
X0162800Y0055429D02*
X0172320Y0055429D01*
X0172320Y0056027D02*
X0162800Y0056027D01*
X0162800Y0056626D02*
X0172320Y0056626D01*
X0172320Y0057224D02*
X0162800Y0057224D01*
X0162800Y0057823D02*
X0172320Y0057823D01*
X0172320Y0058421D02*
X0162800Y0058421D01*
X0162800Y0059020D02*
X0172320Y0059020D01*
X0172320Y0059619D02*
X0162800Y0059619D01*
X0162800Y0060217D02*
X0172320Y0060217D01*
X0172320Y0060816D02*
X0162800Y0060816D01*
X0162800Y0061414D02*
X0172320Y0061414D01*
X0172320Y0062013D02*
X0162800Y0062013D01*
X0162800Y0062611D02*
X0172320Y0062611D01*
X0172320Y0063210D02*
X0162800Y0063210D01*
X0162800Y0063808D02*
X0172320Y0063808D01*
X0172320Y0064407D02*
X0162800Y0064407D01*
X0162800Y0065005D02*
X0172320Y0065005D01*
X0172320Y0065604D02*
X0162800Y0065604D01*
X0162800Y0066202D02*
X0172320Y0066202D01*
X0172320Y0066801D02*
X0162800Y0066801D01*
X0162800Y0067399D02*
X0172320Y0067399D01*
X0172320Y0067998D02*
X0162800Y0067998D01*
X0162705Y0068596D02*
X0172320Y0068596D01*
X0172320Y0069195D02*
X0162106Y0069195D01*
X0161507Y0069793D02*
X0172320Y0069793D01*
X0172320Y0070392D02*
X0160909Y0070392D01*
X0160310Y0070990D02*
X0172320Y0070990D01*
X0172320Y0071589D02*
X0159712Y0071589D01*
X0159113Y0072187D02*
X0172320Y0072187D01*
X0172320Y0072786D02*
X0158515Y0072786D01*
X0157916Y0073384D02*
X0172320Y0073384D01*
X0172320Y0073983D02*
X0157318Y0073983D01*
X0156719Y0074581D02*
X0172320Y0074581D01*
X0172320Y0075180D02*
X0156121Y0075180D01*
X0155522Y0075778D02*
X0172320Y0075778D01*
X0172320Y0076377D02*
X0154924Y0076377D01*
X0154325Y0076975D02*
X0172320Y0076975D01*
X0172320Y0077574D02*
X0153727Y0077574D01*
X0153128Y0078172D02*
X0172320Y0078172D01*
X0172320Y0078771D02*
X0152530Y0078771D01*
X0151931Y0079369D02*
X0172320Y0079369D01*
X0172320Y0079968D02*
X0151333Y0079968D01*
X0150734Y0080566D02*
X0172320Y0080566D01*
X0172320Y0081165D02*
X0150136Y0081165D01*
X0149537Y0081763D02*
X0172320Y0081763D01*
X0172320Y0082362D02*
X0148939Y0082362D01*
X0148340Y0082960D02*
X0172320Y0082960D01*
X0172320Y0083559D02*
X0147742Y0083559D01*
X0147143Y0084157D02*
X0172320Y0084157D01*
X0172320Y0084756D02*
X0146545Y0084756D01*
X0145946Y0085355D02*
X0172320Y0085355D01*
X0172320Y0085953D02*
X0145348Y0085953D01*
X0144749Y0086552D02*
X0172320Y0086552D01*
X0172320Y0087150D02*
X0144151Y0087150D01*
X0143552Y0087749D02*
X0172320Y0087749D01*
X0172320Y0088347D02*
X0142954Y0088347D01*
X0142355Y0088946D02*
X0172320Y0088946D01*
X0172320Y0089544D02*
X0141757Y0089544D01*
X0141158Y0090143D02*
X0172320Y0090143D01*
X0172320Y0090741D02*
X0140560Y0090741D01*
X0139961Y0091340D02*
X0172320Y0091340D01*
X0172320Y0091938D02*
X0139363Y0091938D01*
X0138764Y0092537D02*
X0172320Y0092537D01*
X0172320Y0093135D02*
X0138166Y0093135D01*
X0137567Y0093734D02*
X0172320Y0093734D01*
X0172320Y0094332D02*
X0136969Y0094332D01*
X0136370Y0094931D02*
X0172320Y0094931D01*
X0172320Y0095529D02*
X0135772Y0095529D01*
X0135173Y0096128D02*
X0172320Y0096128D01*
X0172320Y0096726D02*
X0134574Y0096726D01*
X0133976Y0097325D02*
X0172320Y0097325D01*
X0172320Y0097923D02*
X0133377Y0097923D01*
X0129865Y0094931D02*
X0126281Y0094931D01*
X0126702Y0095529D02*
X0129266Y0095529D01*
X0128668Y0096128D02*
X0126949Y0096128D01*
X0127197Y0096726D02*
X0128069Y0096726D01*
X0127471Y0097325D02*
X0127200Y0097325D01*
X0125682Y0094332D02*
X0130463Y0094332D01*
X0131062Y0093734D02*
X0124605Y0093734D01*
X0120800Y0091340D02*
X0120200Y0091340D01*
X0120200Y0090741D02*
X0120800Y0090741D01*
X0120800Y0090143D02*
X0120200Y0090143D01*
X0120200Y0089544D02*
X0120800Y0089544D01*
X0120800Y0088946D02*
X0120200Y0088946D01*
X0120200Y0087150D02*
X0120800Y0087150D01*
X0120800Y0086552D02*
X0120200Y0086552D01*
X0120200Y0085953D02*
X0120800Y0085953D01*
X0120800Y0085355D02*
X0120200Y0085355D01*
X0120200Y0084756D02*
X0120800Y0084756D01*
X0120800Y0084157D02*
X0120200Y0084157D01*
X0115954Y0084157D02*
X0095508Y0084157D01*
X0096106Y0084756D02*
X0115177Y0084756D01*
X0114675Y0085355D02*
X0096629Y0085355D01*
X0096877Y0085953D02*
X0114339Y0085953D01*
X0114122Y0086552D02*
X0097125Y0086552D01*
X0097200Y0087150D02*
X0114003Y0087150D01*
X0115918Y0081165D02*
X0095082Y0081165D01*
X0095880Y0080566D02*
X0115120Y0080566D01*
X0114522Y0079968D02*
X0096478Y0079968D01*
X0096783Y0079369D02*
X0114217Y0079369D01*
X0113969Y0078771D02*
X0097031Y0078771D01*
X0097200Y0078172D02*
X0113800Y0078172D01*
X0113800Y0077574D02*
X0097200Y0077574D01*
X0097200Y0076975D02*
X0113800Y0076975D01*
X0113947Y0076377D02*
X0097053Y0076377D01*
X0096805Y0075778D02*
X0114195Y0075778D01*
X0114470Y0075180D02*
X0096530Y0075180D01*
X0095932Y0074581D02*
X0115068Y0074581D01*
X0115793Y0073983D02*
X0095207Y0073983D01*
X0094183Y0083559D02*
X0141236Y0083559D01*
X0140638Y0084157D02*
X0125045Y0084157D01*
X0125823Y0084756D02*
X0140039Y0084756D01*
X0139441Y0085355D02*
X0126325Y0085355D01*
X0126661Y0085953D02*
X0138842Y0085953D01*
X0138244Y0086552D02*
X0126878Y0086552D01*
X0126997Y0087150D02*
X0137645Y0087150D01*
X0149400Y0103310D02*
X0171485Y0103310D01*
X0170887Y0103908D02*
X0149400Y0103908D01*
X0149057Y0104507D02*
X0170288Y0104507D01*
X0169109Y0105105D02*
X0148458Y0105105D01*
X0147860Y0105704D02*
X0168400Y0105704D01*
X0143739Y0106302D02*
X0127022Y0106302D01*
X0126774Y0105704D02*
X0143140Y0105704D01*
X0142542Y0105105D02*
X0126456Y0105105D01*
X0085918Y0081165D02*
X0080556Y0081165D01*
X0080308Y0080566D02*
X0085120Y0080566D01*
X0084522Y0079968D02*
X0080060Y0079968D01*
X0079675Y0079369D02*
X0084217Y0079369D01*
X0083969Y0078771D02*
X0079077Y0078771D01*
X0078478Y0078172D02*
X0083800Y0078172D01*
X0083800Y0077574D02*
X0077080Y0077574D01*
X0077432Y0061414D02*
X0086520Y0061414D01*
X0085369Y0060816D02*
X0078031Y0060816D01*
X0078629Y0060217D02*
X0084771Y0060217D01*
X0084320Y0059619D02*
X0079228Y0059619D01*
X0079600Y0059020D02*
X0084072Y0059020D01*
X0083824Y0058421D02*
X0079600Y0058421D01*
X0079600Y0057823D02*
X0083800Y0057823D01*
X0083800Y0057224D02*
X0079600Y0057224D01*
X0079600Y0056626D02*
X0083844Y0056626D01*
X0084092Y0056027D02*
X0079600Y0056027D01*
X0079179Y0055429D02*
X0084340Y0055429D01*
X0084819Y0054830D02*
X0078581Y0054830D01*
X0077982Y0054232D02*
X0085418Y0054232D01*
X0086637Y0053633D02*
X0077384Y0053633D01*
X0041749Y0047050D02*
X0007000Y0047050D01*
X0007000Y0046451D02*
X0041151Y0046451D01*
X0040552Y0045853D02*
X0007000Y0045853D01*
X0007000Y0045254D02*
X0039954Y0045254D01*
X0039355Y0044656D02*
X0007000Y0044656D01*
X0007000Y0044057D02*
X0038757Y0044057D01*
X0038158Y0043459D02*
X0007000Y0043459D01*
X0007000Y0042860D02*
X0037559Y0042860D01*
X0036961Y0042262D02*
X0007000Y0042262D01*
X0007000Y0041663D02*
X0036362Y0041663D01*
X0035764Y0041065D02*
X0007000Y0041065D01*
X0007000Y0040466D02*
X0035165Y0040466D01*
X0034567Y0039868D02*
X0007000Y0039868D01*
X0007000Y0039269D02*
X0033968Y0039269D01*
X0033370Y0038671D02*
X0007000Y0038671D01*
X0007000Y0038072D02*
X0032771Y0038072D01*
X0032173Y0037474D02*
X0007000Y0037474D01*
X0007000Y0036875D02*
X0031574Y0036875D01*
X0030976Y0036277D02*
X0007000Y0036277D01*
X0007000Y0035678D02*
X0030377Y0035678D01*
X0029779Y0035080D02*
X0007000Y0035080D01*
X0007000Y0034481D02*
X0029180Y0034481D01*
X0028582Y0033883D02*
X0007000Y0033883D01*
X0007000Y0033284D02*
X0027983Y0033284D01*
X0027385Y0032686D02*
X0007000Y0032686D01*
X0007000Y0032087D02*
X0026786Y0032087D01*
X0026188Y0031488D02*
X0007000Y0031488D01*
X0007000Y0030890D02*
X0025589Y0030890D01*
X0024991Y0030291D02*
X0007000Y0030291D01*
X0007000Y0029693D02*
X0024392Y0029693D01*
X0023794Y0029094D02*
X0007000Y0029094D01*
X0007000Y0028496D02*
X0023195Y0028496D01*
X0022597Y0027897D02*
X0007000Y0027897D01*
X0007000Y0027299D02*
X0021998Y0027299D01*
X0021400Y0026700D02*
X0007000Y0026700D01*
X0007000Y0026102D02*
X0018256Y0026102D01*
X0017657Y0025503D02*
X0007000Y0025503D01*
X0007000Y0024905D02*
X0017059Y0024905D01*
X0016460Y0024306D02*
X0007000Y0024306D01*
X0007000Y0023708D02*
X0016400Y0023708D01*
X0016400Y0023109D02*
X0007000Y0023109D01*
X0007000Y0022511D02*
X0016400Y0022511D01*
X0016400Y0021912D02*
X0007000Y0021912D01*
X0007000Y0021314D02*
X0016400Y0021314D01*
X0016534Y0020715D02*
X0007000Y0020715D01*
X0007000Y0020117D02*
X0017133Y0020117D01*
X0017731Y0019518D02*
X0007000Y0019518D01*
X0007000Y0018920D02*
X0018330Y0018920D01*
X0124480Y0061414D02*
X0158200Y0061414D01*
X0158200Y0060816D02*
X0125631Y0060816D01*
X0126229Y0060217D02*
X0158200Y0060217D01*
X0158200Y0059619D02*
X0126680Y0059619D01*
X0126928Y0059020D02*
X0158200Y0059020D01*
X0158200Y0058421D02*
X0127176Y0058421D01*
X0127200Y0057823D02*
X0158200Y0057823D01*
X0158200Y0057224D02*
X0127200Y0057224D01*
X0127156Y0056626D02*
X0158200Y0056626D01*
X0158200Y0056027D02*
X0126908Y0056027D01*
X0126660Y0055429D02*
X0158200Y0055429D01*
X0158200Y0054830D02*
X0126181Y0054830D01*
X0125582Y0054232D02*
X0158200Y0054232D01*
D19*
X0160500Y0067548D02*
X0160500Y0032548D01*
X0164000Y0029048D01*
X0165921Y0029048D01*
X0170646Y0026576D02*
X0174620Y0030551D01*
X0174620Y0103428D01*
X0170500Y0107548D01*
X0160500Y0067548D02*
X0120500Y0107548D01*
X0090500Y0137548D02*
X0075500Y0137548D01*
X0090500Y0147548D02*
X0025500Y0147548D01*
X0010500Y0162548D01*
X0010500Y0172548D02*
X0040500Y0172548D01*
X0060500Y0152548D01*
X0070500Y0182548D02*
X0070500Y0197548D01*
X0015500Y0102548D02*
X0010500Y0102548D01*
X0015500Y0102548D02*
X0030500Y0092548D01*
X0030500Y0062548D01*
X0015500Y0052548D01*
X0020500Y0067548D02*
X0020500Y0082548D01*
X0010500Y0092548D01*
X0048300Y0063459D02*
X0048300Y0050348D01*
X0020500Y0022548D01*
X0040500Y0022548D02*
X0055500Y0032548D01*
X0055500Y0062548D01*
X0060500Y0072548D01*
X0050500Y0072548D02*
X0050500Y0065659D01*
X0048300Y0063459D01*
X0115500Y0027548D02*
X0120500Y0032548D01*
X0120500Y0047548D01*
X0133000Y0027548D02*
X0148500Y0027548D01*
X0148374Y0027422D01*
X0170646Y0026576D02*
X0170646Y0025898D01*
D20*
X0148374Y0027422D03*
X0133000Y0027548D03*
X0170500Y0107548D03*
X0075500Y0137548D03*
X0060500Y0152548D03*
X0070500Y0182548D03*
X0070500Y0197548D03*
X0020500Y0067548D03*
M02*
