%
M48
M72
T01C0.01378
T02C0.03150
T03C0.03200
T04C0.03937
T05C0.04000
T06C0.07480
%
T01
X20500Y67548
X75500Y137548
X60500Y152548
X70500Y182548
X70500Y197548
X170500Y107548
X148374Y27422
X133000Y27548
T02
X132626Y17548
X140500Y17548
X148374Y17548
X165921Y22749
X170646Y25898
X165921Y29048
X170646Y32198
X165921Y35347
T03
X20500Y12548
X20500Y22548
X40500Y22548
X40500Y12548
X64500Y17048
X80500Y17548
X80500Y27548
X96500Y27548
X104000Y22548
X96500Y17548
X115500Y17548
X115500Y27548
X120500Y47548
X120500Y57548
X120500Y67548
X120500Y77548
X120500Y87548
X120500Y97548
X120500Y107548
X120500Y117548
X120500Y127548
X120500Y137548
X120500Y147548
X120500Y157548
X120500Y167548
X120500Y177548
X135500Y177548
X135500Y167548
X95500Y197548
X90500Y177548
X90500Y167548
X90500Y157548
X90500Y147548
X90500Y137548
X90500Y127548
X90500Y117548
X90500Y107548
X90500Y97548
X90500Y87548
X90500Y77548
X90500Y67548
X90500Y57548
X90500Y47548
X75500Y47548
X75500Y57548
X60500Y72548
X50500Y72548
X40500Y72548
X64500Y37048
X60500Y112548
X50500Y112548
X40500Y112548
X55500Y197548
X145500Y122548
X145500Y102548
T04
X124752Y17548
X156248Y17548
T05
X15500Y52548
X35500Y52548
X10500Y72548
X10500Y82548
X10500Y92548
X10500Y102548
X10500Y112548
X10500Y122548
X10500Y132548
X10500Y142548
X10500Y152548
X10500Y162548
X10500Y172548
X10500Y182548
X10500Y192548
X25500Y192548
X45500Y192548
X75500Y102548
X75500Y92548
X75500Y82548
X198000Y82548
X198000Y72548
X198000Y92548
X198000Y102548
X198000Y112548
X198000Y122548
X198000Y132548
X198000Y142548
T06
X186000Y43418
X186000Y14678
M30
